<svg width="96" height="20" viewBox="0 0 96 20" fill="none" xmlns="http://www.w3.org/2000/svg">
<path d="M30.3015 5.79276C30.5637 5.84528 30.7735 5.87154 30.9309 5.92406L30.6424 7.9199C30.3801 7.86738 30.1179 7.81485 29.8294 7.78859C29.5409 7.76233 29.2786 7.73607 29.0426 7.73607C28.7803 7.73607 28.5443 7.76233 28.3344 7.81485C28.1246 7.86738 27.941 7.9199 27.7837 8.02494C27.5739 8.12999 27.4165 8.26129 27.2854 8.41886C27.1542 8.57642 27.0231 8.78651 26.9444 8.9966V13.6973H24.9249V5.87154H26.787L26.8657 6.9745L26.892 7.15833C27.2067 6.71189 27.6001 6.3705 28.0459 6.10789C28.4918 5.84528 28.9639 5.74023 29.4884 5.74023C29.7507 5.74023 30.0392 5.7665 30.3015 5.79276Z" fill="white"/>
<path d="M33.5274 13.5396C33.0291 13.3296 32.6095 13.0669 32.2685 12.7256C31.9276 12.3842 31.6391 11.9902 31.4555 11.5176C31.2719 11.0449 31.167 10.5722 31.167 10.0469V9.75806C31.167 9.15406 31.2719 8.60258 31.4555 8.12988C31.6391 7.63092 31.9013 7.21074 32.2423 6.84309C32.5832 6.47544 32.9767 6.21283 33.4487 6.00274C33.9208 5.79265 34.4191 5.71387 34.9699 5.71387C35.5207 5.71387 36.0452 5.81891 36.4648 6.00274C36.8845 6.18657 37.2779 6.44918 37.5926 6.79057C37.9073 7.13196 38.1171 7.52588 38.2745 7.99857C38.4319 8.47127 38.5105 8.99649 38.5105 9.57424V10.4146H33.2127V10.4408C33.2914 10.756 33.3701 11.0186 33.475 11.2024C33.5799 11.3862 33.711 11.5701 33.8946 11.7276C34.0782 11.8852 34.288 12.0165 34.524 12.0953C34.7601 12.1741 35.0224 12.2266 35.2846 12.2266C35.678 12.2266 36.0714 12.1478 36.4386 11.9902C36.8058 11.8327 37.1205 11.6226 37.3303 11.3075L38.327 12.3842C38.0647 12.7518 37.6713 13.0669 37.1205 13.3558C36.5697 13.6447 35.9141 13.8023 35.1535 13.8023C34.5765 13.8548 34.0257 13.7497 33.5274 13.5396ZM34.3142 7.47335C34.1306 7.55214 33.9733 7.65718 33.8159 7.81475C33.6586 7.97231 33.5536 8.12988 33.4487 8.33997C33.3438 8.55006 33.2914 8.78641 33.2389 9.02275H36.5435V8.86519C36.5435 8.6551 36.5173 8.44501 36.4386 8.26119C36.3599 8.07736 36.255 7.91979 36.1239 7.76223C35.9928 7.63092 35.8354 7.52588 35.6256 7.44709C35.442 7.36831 35.2059 7.31579 34.9437 7.31579C34.7076 7.36831 34.4978 7.39457 34.3142 7.47335Z" fill="white"/>
<path d="M46.195 10.9399C46.1426 11.2813 46.0639 11.5964 45.959 11.859C45.8541 12.1741 45.6967 12.463 45.5131 12.6994C45.3296 12.962 45.1197 13.1721 44.8837 13.3296C44.6739 13.4872 44.4116 13.6185 44.1493 13.6973C43.8608 13.7761 43.5723 13.8286 43.2314 13.8286C42.9167 13.8286 42.6544 13.8023 42.3921 13.7235C42.1299 13.6448 41.92 13.5397 41.7365 13.3821C41.6315 13.3034 41.5266 13.2246 41.448 13.1458C41.3693 13.067 41.2644 12.962 41.1857 12.8569L41.0808 13.6973H39.2711V2.58887H41.2906V6.58054C41.3955 6.4755 41.5004 6.37045 41.6053 6.26541C41.7102 6.16036 41.8414 6.08158 41.9463 6.02906C42.1299 5.92402 42.3135 5.84523 42.5233 5.79271C42.7331 5.74019 42.9691 5.71393 43.2052 5.71393C43.5461 5.71393 43.8608 5.76645 44.1231 5.84523C44.4116 5.92402 44.6477 6.05532 44.8837 6.21289C45.0673 6.34419 45.2246 6.50176 45.3558 6.65932C45.4869 6.81689 45.618 7.02698 45.7492 7.23707C45.9328 7.57846 46.0639 7.94611 46.1426 8.36629C46.2213 8.78647 46.2737 9.2329 46.2737 9.7056V9.86317C46.2737 10.2571 46.2475 10.5985 46.195 10.9399ZM44.228 9.12786C44.2018 8.94403 44.1756 8.7602 44.1231 8.57638C44.0707 8.36629 43.992 8.20872 43.9133 8.05116C43.8346 7.89359 43.7035 7.76229 43.5461 7.63098C43.4412 7.5522 43.3101 7.49968 43.1789 7.44715C43.0478 7.39463 42.8904 7.39463 42.7069 7.39463C42.4708 7.39463 42.261 7.42089 42.0774 7.49968C41.8938 7.57846 41.7365 7.65724 41.6053 7.78855C41.5529 7.84107 41.4742 7.91985 41.4217 7.99863C41.3693 8.07742 41.3168 8.1562 41.2644 8.26124V11.3863C41.3168 11.5176 41.3955 11.6227 41.4742 11.7277C41.5529 11.8327 41.6315 11.9115 41.7365 11.9903C41.8676 12.0691 41.9987 12.1479 42.1561 12.2004C42.3134 12.2529 42.497 12.2792 42.7069 12.2792C42.8904 12.2792 43.0478 12.2529 43.1789 12.2267C43.3101 12.2004 43.4412 12.1216 43.5461 12.0428C43.7035 11.9378 43.8084 11.8065 43.9133 11.6227C44.0182 11.4388 44.0707 11.255 44.1231 11.0449C44.1493 10.8873 44.2018 10.7035 44.2018 10.5197C44.228 10.3359 44.228 10.1258 44.228 9.94195V9.7056C44.2542 9.52177 44.2542 9.31169 44.228 9.12786Z" fill="white"/>
<path d="M51.8337 13.3821C51.8075 13.2508 51.7813 13.1195 51.7551 12.9882C51.6502 13.1195 51.519 13.2245 51.3617 13.3296C51.2043 13.4346 51.0469 13.5396 50.8896 13.5922C50.706 13.671 50.5224 13.7497 50.3126 13.776C50.1028 13.8285 49.8667 13.8548 49.6307 13.8548C49.2373 13.8548 48.8701 13.8023 48.5291 13.671C48.1882 13.5659 47.8997 13.3821 47.6637 13.1983C47.4276 12.9882 47.244 12.7518 47.1129 12.4629C46.9818 12.1741 46.9031 11.8589 46.9031 11.5176C46.9031 11.0711 46.9818 10.7035 47.1653 10.3621C47.3227 10.0207 47.585 9.75806 47.9259 9.52171C48.2407 9.31163 48.6078 9.18032 49.0537 9.07528C49.4995 8.97023 49.9979 8.91771 50.6011 8.91771H51.7288V8.44501C51.7288 8.26119 51.7026 8.10362 51.6502 7.94605C51.5977 7.78849 51.4928 7.68344 51.3879 7.5784C51.2568 7.47335 51.1256 7.39457 50.942 7.31579C50.7584 7.23701 50.5486 7.23701 50.3126 7.23701C50.1028 7.23701 49.9192 7.26327 49.7618 7.31579C49.6045 7.36831 49.4733 7.44709 49.3946 7.52588C49.316 7.60466 49.2373 7.7097 49.2111 7.81475C49.1586 7.91979 49.1586 8.0511 49.1586 8.20866H47.1391C47.1391 7.86727 47.2178 7.55214 47.3489 7.26327C47.5063 6.9744 47.7161 6.71179 48.0046 6.47544C48.2931 6.23909 48.6341 6.08152 49.0275 5.92396C49.4209 5.76639 49.893 5.71387 50.4175 5.71387C50.8896 5.71387 51.3354 5.76639 51.7288 5.89769C52.1485 6.00274 52.4894 6.18657 52.7779 6.42291C53.0664 6.65926 53.3025 6.94813 53.486 7.28953C53.6696 7.63092 53.7483 8.02484 53.7483 8.49753V11.8589C53.7483 12.2791 53.7745 12.6205 53.827 12.9094C53.8795 13.172 53.9581 13.4083 54.063 13.6184V13.7497H51.9387C51.8862 13.6184 51.86 13.4871 51.8337 13.3821ZM50.6011 12.2266C50.7847 12.1741 50.942 12.1216 51.0732 12.0428C51.2043 11.964 51.3354 11.8852 51.4403 11.7802C51.5453 11.6751 51.6239 11.5701 51.6764 11.4913V10.152H50.6273C50.3126 10.152 50.0503 10.1782 49.8143 10.2308C49.6045 10.2833 49.4209 10.3621 49.2635 10.4934C49.1324 10.5984 49.0275 10.7297 48.9488 10.8873C48.8701 11.0449 48.8439 11.2024 48.8439 11.3862C48.8439 11.5176 48.8701 11.6489 48.9226 11.7802C48.975 11.9115 49.0537 11.9902 49.1324 12.069C49.2373 12.1478 49.3422 12.2003 49.4995 12.2529C49.6307 12.3054 49.8143 12.3316 49.9979 12.3316C50.2339 12.2791 50.4175 12.2791 50.6011 12.2266Z" fill="white"/>
<path d="M59.5707 11.2288C59.5182 11.15 59.4133 11.045 59.2822 10.9662C59.1248 10.8874 58.9413 10.8086 58.7052 10.7561C58.4692 10.7036 58.1807 10.6248 57.8135 10.546C57.3676 10.4672 56.948 10.3359 56.5546 10.2046C56.1874 10.0733 55.8465 9.88947 55.5842 9.70565C55.3219 9.52182 55.1121 9.28547 54.9548 9.02286C54.7974 8.76025 54.7187 8.47138 54.7187 8.12999C54.7187 7.81485 54.7974 7.49972 54.9548 7.21085C55.1121 6.92198 55.3219 6.65937 55.6104 6.44928C55.8989 6.23919 56.2399 6.05537 56.6595 5.92406C57.0791 5.79276 57.5512 5.74023 58.0495 5.74023C58.6003 5.74023 59.0724 5.79276 59.5182 5.92406C59.9641 6.05537 60.3313 6.23919 60.6198 6.44928C60.9083 6.68563 61.1443 6.94824 61.3017 7.26337C61.459 7.57851 61.5377 7.9199 61.5377 8.26129H59.5182C59.5182 8.12999 59.492 7.99868 59.4658 7.89364C59.4133 7.78859 59.3609 7.68355 59.2822 7.5785C59.1511 7.4472 58.9937 7.36842 58.7839 7.28963C58.5741 7.21085 58.338 7.18459 58.0495 7.18459C57.8135 7.18459 57.5775 7.21085 57.3939 7.26337C57.2103 7.3159 57.0529 7.36842 56.948 7.47346C56.8431 7.55224 56.7644 7.63103 56.712 7.73607C56.6595 7.84111 56.6333 7.94616 56.6333 8.07746C56.6333 8.20877 56.6595 8.28755 56.712 8.3926C56.7644 8.49764 56.8431 8.57642 56.9742 8.65521C57.1054 8.73399 57.2627 8.81277 57.4725 8.86529C57.6824 8.91782 57.9446 8.9966 58.2856 9.02286C58.7577 9.10164 59.2035 9.20669 59.5969 9.31173C59.9903 9.44304 60.3575 9.57434 60.646 9.78443C60.9345 9.96826 61.1705 10.2046 61.3279 10.4935C61.4853 10.7561 61.5902 11.0975 61.5902 11.4651C61.5902 11.8065 61.5115 12.1217 61.3279 12.4105C61.1705 12.6994 60.9345 12.962 60.6198 13.1721C60.3051 13.3822 59.9379 13.5398 59.5182 13.6711C59.0724 13.8024 58.6003 13.8549 58.0758 13.8549C57.4988 13.8549 56.9742 13.7761 56.5284 13.6185C56.0825 13.461 55.6891 13.2509 55.4006 13.0145C55.0859 12.7782 54.8761 12.4893 54.7187 12.1742C54.5613 11.859 54.4827 11.5439 54.4827 11.2288H56.3972C56.4235 11.4389 56.4759 11.6227 56.5808 11.7803C56.6857 11.9378 56.8169 12.0429 56.9742 12.1479C57.1316 12.253 57.3152 12.3055 57.525 12.358C57.7348 12.4105 57.9446 12.4105 58.1544 12.4105C58.4167 12.4105 58.6528 12.3843 58.8363 12.3317C59.0199 12.2792 59.2035 12.2267 59.3084 12.1479C59.4396 12.0691 59.5182 11.9904 59.5707 11.8853C59.6232 11.7803 59.6494 11.6752 59.6494 11.5439C59.6494 11.4389 59.6232 11.3338 59.5707 11.2288Z" fill="white"/>
<path d="M64.6063 13.5396C64.108 13.3296 63.6883 13.0669 63.3474 12.7256C63.0064 12.3842 62.7179 11.9902 62.5343 11.5176C62.3508 11.0449 62.2458 10.5722 62.2458 10.0469V9.75806C62.2458 9.15406 62.3508 8.60258 62.5343 8.12988C62.7179 7.63092 62.9802 7.21074 63.3212 6.84309C63.6621 6.47544 64.0555 6.21283 64.5276 6.00274C64.9997 5.79265 65.498 5.71387 66.0488 5.71387C66.5995 5.71387 67.1241 5.81891 67.5437 6.00274C67.9633 6.18657 68.3567 6.44918 68.6715 6.79057C68.9862 7.13196 69.196 7.52588 69.3534 7.99857C69.5107 8.47127 69.5894 8.99649 69.5894 9.57424V10.4146H64.2653V10.4408C64.344 10.756 64.4227 11.0186 64.5276 11.2024C64.6325 11.3862 64.7636 11.5701 64.9472 11.7276C65.1308 11.8852 65.3406 12.0165 65.5767 12.0953C65.8127 12.1741 66.075 12.2266 66.3373 12.2266C66.7307 12.2266 67.1241 12.1478 67.4912 11.9902C67.8584 11.8327 68.1731 11.6226 68.383 11.3075L69.3796 12.3842C69.1173 12.7518 68.7239 13.0669 68.1731 13.3558C67.6224 13.6447 66.9667 13.8023 66.2061 13.8023C65.6291 13.8548 65.0784 13.7497 64.6063 13.5396ZM65.3669 7.47335C65.1833 7.55214 65.0259 7.65718 64.8685 7.81475C64.7112 7.97231 64.6063 8.12988 64.5014 8.33997C64.3965 8.55006 64.344 8.78641 64.2916 9.02275H67.5962V8.86519C67.5962 8.6551 67.5699 8.44501 67.4912 8.26119C67.4126 8.07736 67.3077 7.91979 67.1765 7.76223C67.0454 7.63092 66.888 7.52588 66.6782 7.44709C66.4946 7.36831 66.2586 7.31579 65.9963 7.31579C65.7603 7.36831 65.5767 7.39457 65.3669 7.47335Z" fill="white"/>
<path d="M70.6122 11.5966C70.8482 11.3339 71.1892 11.2026 71.635 11.2026C72.0809 11.2026 72.4218 11.3339 72.6579 11.5966C72.8939 11.8592 73.0251 12.1743 73.0251 12.5419C73.0251 12.9096 72.8939 13.2247 72.6579 13.4873C72.4218 13.75 72.0547 13.855 71.635 13.855C71.2154 13.855 70.8744 13.7237 70.6122 13.4873C70.3499 13.251 70.245 12.9359 70.245 12.5419C70.245 12.1743 70.3761 11.8592 70.6122 11.5966Z" fill="white"/>
<path d="M78.7426 13.3821C78.7163 13.2508 78.6901 13.1195 78.6639 12.9882C78.559 13.1195 78.4278 13.2245 78.2705 13.3296C78.1131 13.4346 77.9558 13.5396 77.7984 13.5922C77.6148 13.671 77.4312 13.7497 77.2214 13.776C77.0116 13.8285 76.7755 13.8548 76.5395 13.8548C76.1461 13.8548 75.7789 13.8023 75.438 13.671C75.097 13.5659 74.8085 13.3821 74.5725 13.1983C74.3364 12.9882 74.1528 12.7518 74.0217 12.4629C73.8906 12.1741 73.8119 11.8589 73.8119 11.5176C73.8119 11.0711 73.8906 10.7035 74.0742 10.3621C74.2315 10.0207 74.4938 9.75806 74.8347 9.52171C75.1495 9.31163 75.5166 9.18032 75.9625 9.07528C76.4084 8.97023 76.9067 8.91771 77.5099 8.91771H78.6377V8.44501C78.6377 8.26119 78.6114 8.10362 78.559 7.94605C78.5065 7.78849 78.4016 7.68344 78.2967 7.5784C78.1656 7.47335 78.0344 7.39457 77.8508 7.31579C77.6673 7.23701 77.4574 7.23701 77.2214 7.23701C77.0116 7.23701 76.828 7.26327 76.6706 7.31579C76.5133 7.36831 76.3821 7.44709 76.3035 7.52588C76.2248 7.60466 76.1461 7.7097 76.1199 7.81475C76.0674 7.91979 76.0674 8.0511 76.0674 8.20866H73.9693C73.9693 7.86727 74.0479 7.55214 74.1791 7.26327C74.3364 6.9744 74.5462 6.71179 74.8347 6.47544C75.1232 6.23909 75.4642 6.08152 75.8576 5.92396C76.251 5.76639 76.7231 5.71387 77.2476 5.71387C77.7197 5.71387 78.1656 5.76639 78.559 5.89769C78.9786 6.00274 79.3196 6.18657 79.6081 6.42291C79.8966 6.65926 80.1326 6.94813 80.3162 7.28953C80.4998 7.63092 80.5785 8.02484 80.5785 8.49753V11.8589C80.5785 12.2791 80.6047 12.6205 80.6571 12.9094C80.7096 13.172 80.7883 13.4083 80.8932 13.6184V13.7497H78.8475C78.8212 13.6184 78.7688 13.4871 78.7426 13.3821ZM77.5099 12.2266C77.6935 12.1741 77.8508 12.1216 77.982 12.0428C78.1131 11.964 78.2443 11.8852 78.3492 11.7802C78.4541 11.6751 78.5327 11.5701 78.5852 11.4913V10.152H77.5624C77.2476 10.152 76.9854 10.1782 76.7493 10.2308C76.5395 10.2833 76.3559 10.3621 76.1985 10.4934C76.0674 10.5984 75.9625 10.7297 75.8838 10.8873C75.8051 11.0449 75.7789 11.2024 75.7789 11.3862C75.7789 11.5176 75.8051 11.6489 75.8576 11.7802C75.9101 11.9115 75.9887 11.9902 76.0674 12.069C76.1723 12.1478 76.2772 12.2003 76.4346 12.2529C76.5657 12.3054 76.7493 12.3316 76.9329 12.3316C77.1427 12.2791 77.3525 12.2791 77.5099 12.2266Z" fill="white"/>
<path d="M87.9746 5.79276C88.2368 5.84528 88.4466 5.87154 88.604 5.92406L88.3155 7.9199C88.0532 7.86738 87.791 7.81485 87.5025 7.78859C87.214 7.76233 86.9517 7.73607 86.7157 7.73607C86.4534 7.73607 86.2173 7.76233 86.0075 7.81485C85.7977 7.86738 85.6141 7.9199 85.4568 8.02494C85.2469 8.12999 85.0896 8.26129 84.9585 8.41886C84.8273 8.57642 84.6962 8.78651 84.6175 8.9966V13.6973H82.598V5.87154H84.4601L84.5388 6.9745L84.565 7.15833C84.8798 6.71189 85.2732 6.3705 85.719 6.10789C86.1649 5.84528 86.637 5.74023 87.1615 5.74023C87.45 5.74023 87.7123 5.7665 87.9746 5.79276Z" fill="white"/>
<path d="M92.7479 5.87151H95.6591V7.34212H92.7479V10.7035C92.7479 10.9924 92.7741 11.2288 92.8528 11.4126C92.9052 11.5964 93.0101 11.754 93.1413 11.859C93.2724 11.9641 93.4035 12.0691 93.5871 12.0954C93.7707 12.1479 93.9543 12.1741 94.1641 12.1741C94.3215 12.1741 94.4788 12.1741 94.6362 12.1479C94.7936 12.1216 94.9509 12.1216 95.1083 12.0954C95.2394 12.0691 95.3968 12.0428 95.5279 12.0428C95.6591 12.0166 95.764 11.9903 95.8689 11.9641L96 13.3822C95.8689 13.4609 95.6853 13.5397 95.5017 13.5922C95.3181 13.6448 95.1083 13.6973 94.8985 13.7498C94.6887 13.8023 94.4788 13.8286 94.2428 13.8286C94.0067 13.8549 93.7969 13.8549 93.5609 13.8549C93.1413 13.8549 92.7479 13.8023 92.4069 13.6973C92.066 13.5922 91.7512 13.4084 91.5152 13.1721C91.2529 12.9357 91.0693 12.6206 90.9382 12.2529C90.8071 11.8853 90.7284 11.4388 90.7284 10.9136V7.36838H88.9449V5.89777H90.7284V3.98071H92.7479V5.87151Z" fill="white"/>
<path d="M13.7522 14.459C11.7327 16.6912 9.34606 18.2143 8.9002 17.8466C8.58548 17.584 9.24115 16.0872 9.5821 15.2993C10.2902 13.6449 11.077 11.7541 10.0017 10.3623C9.24115 9.3906 8.13962 9.33808 7.01186 9.57443C7.51017 8.4452 7.30036 7.21094 6.35619 6.23928C5.54315 5.39893 4.54652 5.05753 3.52367 5.32014C1.92383 5.71406 0.612477 7.57859 0.166618 9.18051C-0.148105 10.3623 -0.0169705 11.3339 0.560023 11.9379C0.560023 11.9379 0.58625 11.9379 0.58625 11.9642C0.58625 11.9642 0.58625 11.9642 0.58625 11.9904L0.612477 12.0167C2.05496 13.4873 4.17935 12.7257 5.8841 12.1217C6.69714 11.8329 8.08717 11.3339 8.32321 11.649C8.66416 12.0692 8.03471 13.5398 7.64131 14.4852C6.93318 16.1659 6.04146 18.2406 7.56263 19.4748C8.00848 19.8425 8.48057 20 9.03134 20C11.3655 20 14.3292 16.98 15.3258 15.8771L13.7522 14.459ZM3.68103 7.52607C4.12689 7.2372 4.46784 7.26346 4.86125 7.68363C5.28088 8.13007 5.33333 8.49773 4.96616 8.99668C4.25803 10.0209 2.63195 10.5723 2.10741 10.4673C2.02873 9.94208 2.63195 8.20885 3.68103 7.52607Z" fill="white"/>
<path d="M19.627 8.05124C19.6008 8.02498 19.6008 8.02498 19.627 8.05124C19.6008 8.02498 19.6008 8.02498 19.6008 8.02498C19.6008 8.02498 19.5745 8.02498 19.5745 7.99872C18.1321 6.50184 16.0077 7.26341 14.2767 7.86742C13.4637 8.15629 12.0736 8.65525 11.8376 8.34011C11.4966 7.91994 12.1261 6.44932 12.5195 5.50392C13.2276 3.82322 14.1193 1.7486 12.5982 0.514333C10.2377 -1.45524 6.06765 2.77278 4.86121 4.11209L6.4086 5.53019C8.4543 3.27174 10.841 1.7486 11.2868 2.11625C11.6015 2.37887 10.9459 3.87574 10.6049 4.66357C9.89679 6.31802 9.10998 8.20881 10.1853 9.60064C10.7098 10.2834 11.3917 10.4935 12.1261 10.4935C12.467 10.4935 12.808 10.441 13.1752 10.3622C12.6768 11.4914 12.8867 12.7257 13.8308 13.6974C14.4603 14.3539 15.2209 14.6953 15.9814 14.6953C16.2175 14.6953 16.4273 14.669 16.6633 14.6165C18.2632 14.1963 19.5745 12.358 20.0204 10.7561C20.3351 9.6269 20.204 8.65525 19.627 8.05124ZM16.506 12.4631C16.0601 12.752 15.7192 12.7257 15.3258 12.3055C14.9061 11.8591 14.8537 11.4914 15.2209 10.9925C15.8765 10.0471 17.319 9.4956 17.9485 9.4956C18.0009 9.4956 18.0272 9.4956 18.0796 9.4956C18.1583 10.0471 17.5551 11.7803 16.506 12.4631Z" fill="white"/>
</svg>
