<svg width="150" height="31" viewBox="0 0 150 31" fill="none" xmlns="http://www.w3.org/2000/svg">
<path d="M47.346 8.97863C47.7558 9.06004 48.0836 9.10074 48.3295 9.18215L47.8787 12.2757C47.4689 12.1943 47.0591 12.1129 46.6083 12.0722C46.1576 12.0315 45.7478 11.9908 45.3789 11.9908C44.9691 11.9908 44.6003 12.0315 44.2725 12.1129C43.9446 12.1943 43.6578 12.2757 43.4119 12.4385C43.0841 12.6013 42.8382 12.8049 42.6333 13.0491C42.4284 13.2933 42.2235 13.6189 42.1006 13.9446V21.2307H38.9451V9.10074H41.8547L41.9776 10.8103L42.0186 11.0953C42.5104 10.4033 43.1251 9.87413 43.8217 9.46708C44.5184 9.06003 45.256 8.89722 46.0756 8.89722C46.4854 8.89722 46.9362 8.93792 47.346 8.97863Z" fill="white"/>
<path d="M52.3866 20.9864C51.608 20.6608 50.9523 20.2537 50.4196 19.7246C49.8868 19.1954 49.4361 18.5848 49.1492 17.8522C48.8623 17.1195 48.6984 16.3868 48.6984 15.5727V15.1249C48.6984 14.1887 48.8623 13.3339 49.1492 12.6013C49.4361 11.8279 49.8459 11.1766 50.3786 10.6067C50.9113 10.0369 51.526 9.62983 52.2637 9.3042C53.0013 8.97856 53.7799 8.85645 54.6405 8.85645C55.501 8.85645 56.3206 9.01926 56.9763 9.3042C57.632 9.58913 58.2467 9.99617 58.7384 10.5253C59.2302 11.0545 59.558 11.6651 59.8039 12.3977C60.0498 13.1304 60.1727 13.9445 60.1727 14.84V16.1426H51.8948V16.1833C52.0178 16.6717 52.1407 17.0788 52.3046 17.3637C52.4686 17.6486 52.6734 17.9336 52.9603 18.1778C53.2472 18.422 53.575 18.6255 53.9438 18.7477C54.3126 18.8698 54.7224 18.9512 55.1322 18.9512C55.7469 18.9512 56.3616 18.8291 56.9353 18.5848C57.509 18.3406 58.0008 18.015 58.3286 17.5265L59.8859 19.1954C59.4761 19.7653 58.8614 20.2537 58.0008 20.7015C57.1402 21.1492 56.1157 21.3934 54.9273 21.3934C54.0258 21.4749 53.1652 21.312 52.3866 20.9864ZM53.616 11.5837C53.3291 11.7058 53.0832 11.8686 52.8374 12.1128C52.5915 12.357 52.4276 12.6013 52.2637 12.9269C52.0997 13.2525 52.0178 13.6189 51.9358 13.9852H57.0993V13.741C57.0993 13.4154 57.0583 13.0897 56.9353 12.8048C56.8124 12.5199 56.6485 12.2756 56.4436 12.0314C56.2387 11.8279 55.9928 11.6651 55.665 11.5429C55.3781 11.4208 55.0093 11.3394 54.5995 11.3394C54.2307 11.4208 53.9028 11.4615 53.616 11.5837Z" fill="white"/>
<path d="M72.1797 16.9567C72.0978 17.4859 71.9748 17.9744 71.8109 18.3814C71.647 18.8699 71.4011 19.3176 71.1142 19.684C70.8274 20.091 70.4995 20.4166 70.1307 20.6609C69.8029 20.9051 69.3931 21.1086 68.9833 21.2307C68.5325 21.3528 68.0817 21.4343 67.549 21.4343C67.0573 21.4343 66.6475 21.3935 66.2377 21.2714C65.8279 21.1493 65.5 20.9865 65.2132 20.7423C65.0493 20.6202 64.8853 20.498 64.7624 20.3759C64.6395 20.2538 64.4755 20.091 64.3526 19.9282L64.1887 21.2307H61.3611V4.0127H64.5165V10.1998C64.6804 10.037 64.8444 9.87415 65.0083 9.71134C65.1722 9.54852 65.3771 9.4264 65.541 9.34499C65.8279 9.18218 66.1147 9.06006 66.4426 8.97865C66.7704 8.89724 67.1392 8.85654 67.508 8.85654C68.0408 8.85654 68.5325 8.93795 68.9423 9.06006C69.3931 9.18218 69.7619 9.3857 70.1307 9.62993C70.4176 9.83345 70.6635 10.0777 70.8684 10.3219C71.0733 10.5661 71.2782 10.8918 71.4831 11.2174C71.7699 11.7466 71.9748 12.3164 72.0977 12.9677C72.2207 13.619 72.3026 14.311 72.3026 15.0436V15.2879C72.3026 15.8984 72.2617 16.4276 72.1797 16.9567ZM69.1062 14.1481C69.0653 13.8632 69.0243 13.5783 68.9423 13.2933C68.8604 12.9677 68.7374 12.7235 68.6145 12.4792C68.4915 12.235 68.2866 12.0315 68.0408 11.828C67.8768 11.7059 67.672 11.6244 67.4671 11.543C67.2622 11.4616 67.0163 11.4616 66.7294 11.4616C66.3606 11.4616 66.0328 11.5023 65.7459 11.6245C65.459 11.7466 65.2132 11.8687 65.0083 12.0722C64.9263 12.1536 64.8034 12.2757 64.7214 12.3978C64.6395 12.52 64.5575 12.6421 64.4755 12.8049V17.6487C64.5575 17.8522 64.6804 18.0151 64.8034 18.1779C64.9263 18.3407 65.0493 18.4628 65.2132 18.5849C65.4181 18.707 65.623 18.8292 65.8688 18.9106C66.1147 18.992 66.4016 19.0327 66.7294 19.0327C67.0163 19.0327 67.2622 18.992 67.4671 18.9513C67.672 18.9106 67.8768 18.7885 68.0408 18.6663C68.2866 18.5035 68.4506 18.3 68.6145 18.0151C68.7784 17.7301 68.8604 17.4452 68.9423 17.1196C68.9833 16.8753 69.0653 16.5904 69.0653 16.3055C69.1062 16.0205 69.1062 15.6949 69.1062 15.41V15.0436C69.1472 14.7587 69.1472 14.4331 69.1062 14.1481Z" fill="white"/>
<path d="M80.9903 20.7422C80.9493 20.5387 80.9083 20.3351 80.8674 20.1316C80.7035 20.3351 80.4986 20.4979 80.2527 20.6608C80.0068 20.8236 79.7609 20.9864 79.515 21.0678C79.2282 21.1899 78.9413 21.312 78.6135 21.3527C78.2857 21.4342 77.9168 21.4749 77.548 21.4749C76.9333 21.4749 76.3596 21.3934 75.8269 21.1899C75.2941 21.0271 74.8434 20.7422 74.4745 20.4572C74.1057 20.1316 73.8189 19.7653 73.614 19.3175C73.4091 18.8698 73.2861 18.3813 73.2861 17.8522C73.2861 17.1602 73.4091 16.5903 73.6959 16.0612C73.9418 15.532 74.3516 15.1249 74.8843 14.7586C75.3761 14.433 75.9498 14.2294 76.6465 14.0666C77.3431 13.9038 78.1217 13.8224 79.0643 13.8224H80.8264V13.0897C80.8264 12.8048 80.7854 12.5606 80.7034 12.3163C80.6215 12.0721 80.4576 11.9093 80.2936 11.7465C80.0888 11.5837 79.8839 11.4615 79.597 11.3394C79.3101 11.2173 78.9823 11.2173 78.6135 11.2173C78.2857 11.2173 77.9988 11.258 77.7529 11.3394C77.507 11.4208 77.3021 11.5429 77.1792 11.6651C77.0563 11.7872 76.9333 11.95 76.8923 12.1128C76.8104 12.2756 76.8104 12.4792 76.8104 12.7234H73.6549C73.6549 12.1942 73.7779 11.7058 73.9828 11.258C74.2287 10.8103 74.5565 10.4032 75.0073 10.0369C75.4581 9.67054 75.9908 9.42631 76.6055 9.18208C77.2202 8.93785 77.9578 8.85645 78.7774 8.85645C79.515 8.85645 80.2117 8.93785 80.8264 9.14138C81.4821 9.3042 82.0148 9.58913 82.4656 9.95547C82.9163 10.3218 83.2852 10.7696 83.572 11.2987C83.8589 11.8279 83.9818 12.4384 83.9818 13.1711V18.3813C83.9818 19.0326 84.0228 19.5617 84.1048 20.0095C84.1867 20.4165 84.3097 20.7829 84.4736 21.1085V21.312H81.1542C81.0723 21.1085 81.0313 20.905 80.9903 20.7422ZM79.0643 18.9512C79.3511 18.8698 79.597 18.7884 79.8019 18.6662C80.0068 18.5441 80.2117 18.422 80.3756 18.2592C80.5395 18.0964 80.6625 17.9336 80.7444 17.8114V15.7355H79.1052C78.6135 15.7355 78.2037 15.7762 77.8349 15.8576C77.507 15.939 77.2202 16.0612 76.9743 16.2647C76.7694 16.4275 76.6055 16.631 76.4825 16.8752C76.3596 17.1195 76.3186 17.3637 76.3186 17.6486C76.3186 17.8522 76.3596 18.0557 76.4416 18.2592C76.5235 18.4627 76.6465 18.5848 76.7694 18.7069C76.9333 18.8291 77.0972 18.9105 77.3431 18.9919C77.548 19.0733 77.8349 19.114 78.1217 19.114C78.4906 19.0326 78.7774 19.0326 79.0643 18.9512Z" fill="white"/>
<path d="M93.0792 17.4045C92.9973 17.2824 92.8333 17.1195 92.6284 16.9974C92.3826 16.8753 92.0957 16.7532 91.7269 16.6718C91.3581 16.5904 90.9073 16.4683 90.3336 16.3462C89.6369 16.224 88.9812 16.0205 88.3665 15.817C87.7928 15.6135 87.2601 15.3285 86.8503 15.0436C86.4405 14.7587 86.1127 14.3923 85.8668 13.9853C85.6209 13.5782 85.498 13.1305 85.498 12.6013C85.498 12.1129 85.6209 11.6244 85.8668 11.1767C86.1127 10.7289 86.4405 10.3219 86.8913 9.99624C87.3421 9.6706 87.8748 9.38567 88.5305 9.18215C89.1861 8.97863 89.9238 8.89722 90.7024 8.89722C91.563 8.89722 92.3006 8.97863 92.9972 9.18215C93.6939 9.38567 94.2676 9.6706 94.7184 9.99624C95.1692 10.3626 95.538 10.7696 95.7839 11.2581C96.0297 11.7465 96.1527 12.2757 96.1527 12.8049H92.9972C92.9972 12.6013 92.9563 12.3978 92.9153 12.235C92.8333 12.0722 92.7514 11.9094 92.6284 11.7465C92.4235 11.543 92.1777 11.4209 91.8498 11.2988C91.522 11.1767 91.1532 11.136 90.7024 11.136C90.3336 11.136 89.9648 11.1767 89.6779 11.2581C89.391 11.3395 89.1452 11.4209 88.9812 11.5837C88.8173 11.7058 88.6944 11.8279 88.6124 11.9908C88.5305 12.1536 88.4895 12.3164 88.4895 12.5199C88.4895 12.7234 88.5305 12.8456 88.6124 13.0084C88.6944 13.1712 88.8173 13.2933 89.0222 13.4154C89.2271 13.5375 89.473 13.6596 89.8008 13.7411C90.1287 13.8225 90.5385 13.9446 91.0712 13.9853C91.8088 14.1074 92.5055 14.2702 93.1202 14.433C93.7349 14.6366 94.3086 14.8401 94.7594 15.1657C95.2101 15.4507 95.579 15.817 95.8248 16.2647C96.0707 16.6718 96.2346 17.2009 96.2346 17.7708C96.2346 18.3 96.1117 18.7884 95.8248 19.2362C95.579 19.6839 95.2102 20.091 94.7184 20.4166C94.2266 20.7422 93.6529 20.9865 92.9972 21.19C92.3006 21.3935 91.563 21.4749 90.7434 21.4749C89.8418 21.4749 89.0222 21.3528 88.3256 21.1086C87.6289 20.8644 87.0142 20.5387 86.5634 20.1724C86.0717 19.806 85.7438 19.3583 85.498 18.8698C85.2521 18.3814 85.1292 17.8929 85.1292 17.4045H88.1207C88.1616 17.7301 88.2436 18.015 88.4075 18.2593C88.5714 18.5035 88.7763 18.6663 89.0222 18.8291C89.2681 18.9919 89.555 19.0734 89.8828 19.1548C90.2106 19.2362 90.5385 19.2362 90.8663 19.2362C91.2761 19.2362 91.6449 19.1955 91.9318 19.1141C92.2186 19.0327 92.5055 18.9512 92.6694 18.8291C92.8743 18.707 92.9973 18.5849 93.0792 18.4221C93.1612 18.2593 93.2021 18.0964 93.2021 17.8929C93.2021 17.7301 93.1612 17.5673 93.0792 17.4045Z" fill="white"/>
<path d="M100.947 20.9864C100.169 20.6608 99.513 20.2537 98.9803 19.7246C98.4476 19.1954 97.9968 18.5848 97.7099 17.8522C97.4231 17.1195 97.2592 16.3868 97.2592 15.5727V15.1249C97.2592 14.1887 97.4231 13.3339 97.7099 12.6013C97.9968 11.8279 98.4066 11.1766 98.9393 10.6067C99.4721 10.0369 100.087 9.62983 100.824 9.3042C101.562 8.97856 102.341 8.85645 103.201 8.85645C104.062 8.85645 104.881 9.01926 105.537 9.3042C106.193 9.58913 106.807 9.99617 107.299 10.5253C107.791 11.0545 108.119 11.6651 108.365 12.3977C108.611 13.1304 108.733 13.9445 108.733 14.84V16.1426H100.415V16.1833C100.538 16.6717 100.66 17.0788 100.824 17.3637C100.988 17.6486 101.193 17.9336 101.48 18.1778C101.767 18.422 102.095 18.6255 102.464 18.7477C102.832 18.8698 103.242 18.9512 103.652 18.9512C104.267 18.9512 104.881 18.8291 105.455 18.5848C106.029 18.3406 106.521 18.015 106.848 17.5265L108.406 19.1954C107.996 19.7653 107.381 20.2537 106.521 20.7015C105.66 21.1492 104.635 21.3934 103.447 21.3934C102.546 21.4749 101.685 21.312 100.947 20.9864ZM102.136 11.5837C101.849 11.7058 101.603 11.8686 101.357 12.1128C101.111 12.357 100.947 12.6013 100.783 12.9269C100.619 13.2525 100.538 13.6189 100.456 13.9852H105.619V13.741C105.619 13.4154 105.578 13.0897 105.455 12.8048C105.332 12.5199 105.168 12.2756 104.963 12.0314C104.758 11.8279 104.513 11.6651 104.185 11.5429C103.898 11.4208 103.529 11.3394 103.119 11.3394C102.75 11.4208 102.464 11.4615 102.136 11.5837Z" fill="white"/>
<path d="M110.332 17.9746C110.7 17.5675 111.233 17.364 111.93 17.364C112.626 17.364 113.159 17.5675 113.528 17.9746C113.897 18.3816 114.102 18.8701 114.102 19.4399C114.102 20.0098 113.897 20.4983 113.528 20.9053C113.159 21.3124 112.585 21.4752 111.93 21.4752C111.274 21.4752 110.741 21.2717 110.332 20.9053C109.922 20.539 109.758 20.0505 109.758 19.4399C109.758 18.8701 109.963 18.3816 110.332 17.9746Z" fill="white"/>
<path d="M123.035 20.7422C122.994 20.5387 122.953 20.3351 122.912 20.1316C122.748 20.3351 122.544 20.4979 122.298 20.6608C122.052 20.8236 121.806 20.9864 121.56 21.0678C121.273 21.1899 120.986 21.312 120.658 21.3527C120.331 21.4342 119.962 21.4749 119.593 21.4749C118.978 21.4749 118.405 21.3934 117.872 21.1899C117.339 21.0271 116.888 20.7422 116.52 20.4572C116.151 20.1316 115.864 19.7653 115.659 19.3175C115.454 18.8698 115.331 18.3813 115.331 17.8522C115.331 17.1602 115.454 16.5903 115.741 16.0612C115.987 15.532 116.397 15.1249 116.929 14.7586C117.421 14.433 117.995 14.2294 118.691 14.0666C119.388 13.9038 120.167 13.8224 121.109 13.8224H122.871V13.0897C122.871 12.8048 122.83 12.5606 122.748 12.3163C122.666 12.0721 122.503 11.9093 122.339 11.7465C122.134 11.5837 121.929 11.4615 121.642 11.3394C121.355 11.2173 121.027 11.2173 120.658 11.2173C120.331 11.2173 120.044 11.258 119.798 11.3394C119.552 11.4208 119.347 11.5429 119.224 11.6651C119.101 11.7872 118.978 11.95 118.937 12.1128C118.855 12.2756 118.855 12.4792 118.855 12.7234H115.577C115.577 12.1942 115.7 11.7058 115.905 11.258C116.151 10.8103 116.479 10.4032 116.929 10.0369C117.38 9.67054 117.913 9.42631 118.528 9.18208C119.142 8.93785 119.88 8.85645 120.699 8.85645C121.437 8.85645 122.134 8.93785 122.748 9.14138C123.404 9.3042 123.937 9.58913 124.388 9.95547C124.838 10.3218 125.207 10.7696 125.494 11.2987C125.781 11.8279 125.904 12.4384 125.904 13.1711V18.3813C125.904 19.0326 125.945 19.5617 126.027 20.0095C126.109 20.4165 126.232 20.7829 126.396 21.1085V21.312H123.199C123.158 21.1085 123.076 20.905 123.035 20.7422ZM121.109 18.9512C121.396 18.8698 121.642 18.7884 121.847 18.6662C122.052 18.5441 122.257 18.422 122.421 18.2592C122.585 18.0964 122.707 17.9336 122.789 17.8114V15.7355H121.191C120.699 15.7355 120.29 15.7762 119.921 15.8576C119.593 15.939 119.306 16.0612 119.06 16.2647C118.855 16.4275 118.691 16.631 118.569 16.8752C118.446 17.1195 118.405 17.3637 118.405 17.6486C118.405 17.8522 118.446 18.0557 118.528 18.2592C118.609 18.4627 118.732 18.5848 118.855 18.7069C119.019 18.8291 119.183 18.9105 119.429 18.9919C119.634 19.0733 119.921 19.114 120.208 19.114C120.536 19.0326 120.863 19.0326 121.109 18.9512Z" fill="white"/>
<path d="M137.46 8.97863C137.87 9.06004 138.198 9.10074 138.444 9.18215L137.993 12.2757C137.583 12.1943 137.173 12.1129 136.723 12.0722C136.272 12.0315 135.862 11.9908 135.493 11.9908C135.083 11.9908 134.715 12.0315 134.387 12.1129C134.059 12.1943 133.772 12.2757 133.526 12.4385C133.198 12.6013 132.953 12.8049 132.748 13.0491C132.543 13.2933 132.338 13.6189 132.215 13.9446V21.2307H129.059V9.10074H131.969L132.092 10.8103L132.133 11.0953C132.625 10.4033 133.239 9.87413 133.936 9.46708C134.633 9.06003 135.37 8.89722 136.19 8.89722C136.641 8.89722 137.05 8.93792 137.46 8.97863Z" fill="white"/>
<path d="M144.918 9.10089H149.467V11.3803H144.918V16.5905C144.918 17.0383 144.959 17.4046 145.082 17.6896C145.164 17.9745 145.328 18.2187 145.533 18.3815C145.738 18.5444 145.943 18.7072 146.23 18.7479C146.517 18.8293 146.804 18.87 147.131 18.87C147.377 18.87 147.623 18.87 147.869 18.8293C148.115 18.7886 148.361 18.7886 148.607 18.7479C148.812 18.7072 149.057 18.6665 149.262 18.6665C149.467 18.6258 149.631 18.5851 149.795 18.5444L150 20.7424C149.795 20.8645 149.508 20.9866 149.221 21.068C148.934 21.1494 148.607 21.2309 148.279 21.3123C147.951 21.3937 147.623 21.4344 147.254 21.4344C146.885 21.4751 146.558 21.4751 146.189 21.4751C145.533 21.4751 144.918 21.3937 144.386 21.2309C143.853 21.068 143.361 20.7831 142.992 20.4168C142.583 20.0504 142.296 19.562 142.091 18.9921C141.886 18.4222 141.763 17.7303 141.763 16.9162V11.4211H138.976V9.1416H141.763V6.17017H144.918V9.10089Z" fill="white"/>
<path d="M21.4878 22.4115C18.3324 25.8713 14.6032 28.2322 13.9066 27.6623C13.4148 27.2553 14.4393 24.9351 14.972 23.714C16.0785 21.1496 17.3079 18.2189 15.6277 16.0615C14.4393 14.5555 12.7182 14.4741 10.956 14.8404C11.7346 13.0901 11.4068 11.177 9.93154 9.67093C8.66117 8.36838 7.10394 7.83923 5.50574 8.24627C3.00598 8.85684 0.956995 11.7469 0.260341 14.2298C-0.231414 16.0615 -0.0265163 17.5676 0.875036 18.5038C0.875036 18.5038 0.916016 18.5038 0.916016 18.5445C0.916016 18.5445 0.916016 18.5445 0.916016 18.5852L0.956995 18.6259C3.21088 20.9054 6.53023 19.725 9.19391 18.7888C10.4643 18.341 12.6362 17.5676 13.005 18.0561C13.5377 18.7073 12.5542 20.9868 11.9395 22.4522C10.8331 25.0573 9.43978 28.2729 11.8166 30.186C12.5133 30.7559 13.2509 31.0001 14.1115 31.0001C17.7587 31.0001 22.3894 26.3191 23.9466 24.6095L21.4878 22.4115ZM5.75162 11.6655C6.44827 11.2177 6.981 11.2584 7.5957 11.9097C8.25137 12.6017 8.33333 13.1715 7.75962 13.9449C6.65317 15.5324 4.11243 16.3872 3.29284 16.2244C3.1699 15.4103 4.11243 12.7238 5.75162 11.6655Z" fill="white"/>
<path d="M30.6672 12.4794C30.6263 12.4387 30.6263 12.4387 30.6672 12.4794C30.6263 12.4387 30.6263 12.4387 30.6263 12.4387C30.6263 12.4387 30.5853 12.4387 30.5853 12.398C28.3314 10.0779 25.0121 11.2583 22.3074 12.1945C21.037 12.6422 18.8651 13.4156 18.4963 12.9272C17.9636 12.2759 18.9471 9.99645 19.5618 8.53108C20.6682 5.92599 22.0615 2.71033 19.6847 0.797217C15.9965 -2.25563 9.48077 4.29781 7.5957 6.37374L10.0135 8.57179C13.2099 5.0712 16.9391 2.71033 17.6357 3.2802C18.1275 3.68724 17.103 6.0074 16.5702 7.22854C15.4638 9.79292 14.2344 12.7237 15.9146 14.881C16.7342 15.9393 17.7996 16.265 18.9471 16.265C19.4798 16.265 20.0125 16.1835 20.5863 16.0614C19.8076 17.8117 20.1355 19.7248 21.6107 21.2309C22.5943 22.2485 23.7827 22.7777 24.9711 22.7777C25.3399 22.7777 25.6677 22.737 26.0365 22.6556C28.5363 22.0043 30.5853 19.155 31.2819 16.672C31.7737 14.9217 31.5688 13.4156 30.6672 12.4794ZM25.7907 19.3178C25.094 19.7655 24.5613 19.7248 23.9466 19.0736C23.2909 18.3816 23.209 17.8117 23.7827 17.0383C24.8072 15.573 27.061 14.7182 28.0445 14.7182C28.1265 14.7182 28.1675 14.7182 28.2494 14.7182C28.3724 15.573 27.4299 18.2595 25.7907 19.3178Z" fill="white"/>
</svg>
