<svg width="111" height="20" viewBox="0 0 111 20" fill="none" xmlns="http://www.w3.org/2000/svg">
<path d="M30.475 5.74805C29.9501 5.74805 29.4776 5.87928 29.0314 6.1155C28.5853 6.37797 28.2178 6.71918 27.8766 7.16537L27.8503 6.98164L27.7716 5.87928H25.9081V13.7008H27.9291V9.00264C28.0078 8.79267 28.1391 8.58269 28.2703 8.42521C28.4015 8.26773 28.5853 8.1365 28.769 8.03151C28.9265 7.95277 29.1102 7.87403 29.3202 7.82154C29.5301 7.76904 29.7664 7.7428 30.0288 7.7428C30.2913 7.7428 30.5538 7.76905 30.8162 7.79529C31.1049 7.82154 31.3674 7.87403 31.6299 7.92653L31.9186 5.93177C31.7611 5.87928 31.5511 5.82679 31.2887 5.80054C31.0524 5.77429 30.7637 5.74805 30.475 5.74805Z" fill="white"/>
<path d="M38.5854 6.79804C38.2704 6.45683 37.9029 6.19436 37.4567 6.01064C37.0105 5.82691 36.5119 5.72192 35.9607 5.72192C35.4095 5.72192 34.9108 5.82691 34.4384 6.01064C33.9659 6.22061 33.5722 6.48308 33.231 6.85053C32.8898 7.21799 32.6273 7.63793 32.4436 8.13662C32.2599 8.63531 32.1549 9.18649 32.1549 9.76392V10.0526C32.1549 10.5776 32.2599 11.0763 32.4436 11.5224C32.6273 11.9949 32.9161 12.3886 33.2573 12.7298C33.5985 13.071 34.0184 13.3335 34.5171 13.5434C35.0158 13.7534 35.567 13.8322 36.1707 13.8322C36.9318 13.8322 37.588 13.6747 38.1392 13.386C38.6903 13.0973 39.1103 12.756 39.3465 12.4148L38.3491 11.3387C38.1129 11.6274 37.8242 11.8637 37.4567 12.0211C37.0893 12.1786 36.6956 12.2574 36.3019 12.2574C36.0132 12.2574 35.777 12.2049 35.5407 12.1261C35.3045 12.0474 35.0945 11.9161 34.9108 11.7587C34.7271 11.6012 34.5959 11.4437 34.4909 11.2337C34.3859 11.05 34.3071 10.7875 34.2284 10.4726V10.4463H39.5302V9.60644C39.5302 9.02901 39.4515 8.50408 39.294 8.03164C39.1365 7.55919 38.9003 7.13925 38.5854 6.79804ZM37.5617 9.05526H34.2546C34.3071 8.79279 34.3859 8.55657 34.4646 8.37284C34.5696 8.16287 34.6746 7.97914 34.8321 7.84791C34.9633 7.69043 35.147 7.58544 35.3308 7.5067C35.5145 7.42796 35.7245 7.37547 35.9607 7.37547C36.2231 7.37547 36.4331 7.42796 36.6431 7.5067C36.8268 7.58544 37.0105 7.69043 37.1418 7.82166C37.273 7.95289 37.378 8.13662 37.4567 8.32035C37.5355 8.50408 37.5617 8.71405 37.5617 8.92402V9.05526Z" fill="white"/>
<path d="M46.7743 7.27055C46.6693 7.06058 46.5381 6.87685 46.3806 6.69312C46.2231 6.50939 46.0657 6.37816 45.9082 6.24693C45.6982 6.08945 45.4357 5.95821 45.147 5.87947C44.8583 5.80073 44.5433 5.74824 44.2284 5.74824C43.9922 5.74824 43.7559 5.77449 43.546 5.82698C43.336 5.87947 43.1523 5.95821 42.9685 6.0632C42.8373 6.14194 42.7323 6.22068 42.6273 6.29942C42.5224 6.37816 42.4174 6.48315 42.3124 6.61438V2.59863H40.2914V13.701H42.1024L42.2074 12.8611C42.2861 12.9661 42.3649 13.0711 42.4699 13.1498C42.5486 13.2286 42.6536 13.3073 42.7586 13.386C42.9685 13.5435 43.1785 13.6485 43.4147 13.7272C43.651 13.806 43.9397 13.8322 44.2546 13.8322C44.5958 13.8322 44.8846 13.7797 45.1733 13.701C45.462 13.6223 45.6982 13.491 45.9082 13.3335C46.1444 13.1761 46.3544 12.9398 46.5381 12.7036C46.7218 12.4412 46.8531 12.1524 46.9843 11.8637C47.0893 11.575 47.168 11.2601 47.2205 10.9451C47.273 10.6039 47.2993 10.2627 47.2993 9.86897V9.71149C47.2993 9.23905 47.2468 8.79286 47.168 8.37291C47.0893 7.95296 46.958 7.61176 46.7743 7.27055ZM45.2783 9.86897C45.2783 10.0789 45.2783 10.2627 45.252 10.4464C45.2258 10.6301 45.1995 10.8139 45.1733 10.9713C45.1208 11.1813 45.042 11.3913 44.9633 11.5488C44.8583 11.7325 44.7533 11.8637 44.5958 11.9687C44.4909 12.0475 44.3596 12.0999 44.2284 12.1524C44.0972 12.2049 43.9134 12.2049 43.7559 12.2049C43.546 12.2049 43.3622 12.1787 43.2048 12.1262C43.0473 12.0737 42.8898 12.0212 42.7848 11.9162C42.6798 11.8375 42.6011 11.7587 42.5224 11.6538C42.4436 11.5488 42.3911 11.4438 42.3124 11.3125V8.24168C42.3649 8.16294 42.3911 8.05795 42.4699 7.97921C42.5224 7.90047 42.5748 7.82173 42.6536 7.76924C42.7848 7.638 42.9423 7.53302 43.126 7.48052C43.3098 7.40178 43.5197 7.37554 43.7559 7.37554C43.9397 7.37554 44.0972 7.40178 44.2284 7.42803C44.3596 7.45428 44.4909 7.53302 44.5958 7.61176C44.7533 7.74299 44.8846 7.87422 44.9633 8.0317C45.042 8.18918 45.1208 8.37291 45.1733 8.55664C45.2258 8.71412 45.252 8.89785 45.2783 9.10782C45.3045 9.29155 45.3045 9.50152 45.3045 9.71149V9.86897H45.2783Z" fill="white"/>
<path d="M54.7007 11.8373V8.47771C54.7007 8.03151 54.622 7.63781 54.4383 7.27036C54.2545 6.90291 54.0446 6.64044 53.7296 6.40422C53.4409 6.168 53.0734 6.01052 52.6797 5.87928C52.2598 5.7743 51.8398 5.69556 51.3674 5.69556C50.8425 5.69556 50.37 5.7743 49.9763 5.90553C49.5826 6.03676 49.2152 6.22049 48.9527 6.45671C48.664 6.69293 48.454 6.9554 48.2965 7.24411C48.1391 7.53283 48.0866 7.84779 48.0866 8.189H50.1076C50.1076 8.05776 50.1338 7.92653 50.1601 7.79529C50.2125 7.69031 50.265 7.58532 50.3438 7.50658C50.4488 7.42784 50.5538 7.3491 50.7112 7.29661C50.8687 7.24411 51.0524 7.21787 51.2624 7.21787C51.4986 7.21787 51.7086 7.24411 51.8923 7.29661C52.0761 7.3491 52.2335 7.45409 52.3385 7.55907C52.4435 7.66406 52.5485 7.79529 52.601 7.92653C52.6535 8.08401 52.6797 8.24149 52.6797 8.42522V8.9239H51.5511C50.9737 8.9239 50.4488 8.9764 50.0026 9.08138C49.5564 9.18637 49.1889 9.34385 48.874 9.52758C48.5328 9.73755 48.2965 10.0263 48.1128 10.3675C47.9553 10.7087 47.8503 11.0761 47.8503 11.5223C47.8503 11.8635 47.9291 12.1785 48.0603 12.4672C48.1916 12.7559 48.3753 12.9921 48.6115 13.2021C48.8477 13.4121 49.1364 13.5696 49.4776 13.6746C49.8188 13.7795 50.1863 13.8583 50.58 13.8583C50.8162 13.8583 51.0524 13.832 51.2624 13.7795C51.4724 13.7271 51.6824 13.6746 51.8398 13.5958C52.0236 13.5171 52.1811 13.4383 52.3123 13.3334C52.4698 13.2284 52.5748 13.1234 52.706 12.9921C52.7322 13.1234 52.7585 13.2546 52.7847 13.3858C52.811 13.5171 52.8635 13.6221 52.916 13.7271H54.9632V13.5958C54.8582 13.3858 54.7795 13.1496 54.727 12.8872C54.727 12.5984 54.7007 12.2572 54.7007 11.8373ZM52.6797 11.4698C52.6272 11.5748 52.5485 11.6798 52.4435 11.7585C52.3385 11.8373 52.2335 11.9423 52.0761 12.021C51.9448 12.0998 51.7874 12.1522 51.6036 12.2047C51.4199 12.2572 51.2362 12.2835 51.0524 12.2835C50.8687 12.2835 50.7112 12.2572 50.5538 12.2047C50.4225 12.1522 50.2913 12.0998 50.1863 12.021C50.0813 11.9423 50.0288 11.8373 49.9763 11.7323C49.9238 11.6273 49.8976 11.4961 49.8976 11.3386C49.8976 11.1549 49.9238 10.9974 50.0026 10.8399C50.0813 10.6824 50.1863 10.5512 50.3175 10.4462C50.4488 10.3412 50.6325 10.2625 50.8687 10.1837C51.0787 10.1313 51.3674 10.105 51.6824 10.105H52.706V11.4698H52.6797Z" fill="white"/>
<path d="M61.6824 9.79004C61.3937 9.60631 61.0262 9.44883 60.6325 9.3176C60.2388 9.18637 59.7926 9.10763 59.3202 9.02889C59.0052 8.97639 58.7165 8.9239 58.5065 8.87141C58.2966 8.81891 58.1391 8.74017 58.0078 8.66143C57.8766 8.58269 57.7979 8.50395 57.7454 8.39897C57.6929 8.29398 57.6666 8.18899 57.6666 8.084C57.6666 7.97902 57.6929 7.84778 57.7454 7.7428C57.7979 7.63781 57.8766 7.55907 57.9816 7.48033C58.0866 7.40159 58.2441 7.32285 58.4278 7.27036C58.6115 7.21786 58.8215 7.19162 59.084 7.19162C59.3727 7.19162 59.6089 7.21786 59.8189 7.2966C60.0289 7.37534 60.1863 7.45408 60.3176 7.58532C60.3963 7.66406 60.475 7.76904 60.5013 7.90028C60.5538 8.00526 60.5538 8.1365 60.5538 8.26773H62.5748C62.5748 7.90028 62.496 7.55907 62.3386 7.27036C62.1811 6.9554 61.9449 6.69293 61.6562 6.45671C61.3412 6.24673 60.9737 6.06301 60.5538 5.93177C60.1076 5.80054 59.6351 5.74805 59.084 5.74805C58.559 5.74805 58.0866 5.80054 57.6929 5.93177C57.2729 6.06301 56.9317 6.24673 56.643 6.45671C56.3543 6.66668 56.1443 6.92915 55.9868 7.21786C55.8294 7.50658 55.7506 7.82154 55.7506 8.1365C55.7506 8.47771 55.8294 8.76642 55.9868 9.02889C56.1443 9.29135 56.3543 9.50133 56.6168 9.7113C56.8792 9.92128 57.2204 10.0788 57.5879 10.21C57.9554 10.3412 58.3753 10.4725 58.8477 10.5512C59.2152 10.6299 59.5039 10.6824 59.7401 10.7612C59.9764 10.8399 60.1601 10.8924 60.3176 10.9711C60.4488 11.0499 60.5538 11.1286 60.6063 11.2336C60.6588 11.3386 60.685 11.4436 60.685 11.5486C60.685 11.6798 60.6588 11.7848 60.6063 11.8898C60.5538 11.9948 60.4488 12.0735 60.3438 12.1522C60.2126 12.231 60.0551 12.2835 59.8714 12.336C59.6876 12.3885 59.4514 12.4147 59.189 12.4147C58.979 12.4147 58.769 12.3885 58.559 12.3622C58.3491 12.3097 58.1653 12.2572 58.0078 12.1522C57.8504 12.0735 57.7191 11.9423 57.6141 11.7848C57.5092 11.6273 57.4567 11.4436 57.4304 11.2336H55.5144C55.5144 11.5486 55.5931 11.8635 55.7506 12.1785C55.9081 12.4935 56.1443 12.7822 56.433 13.0184C56.748 13.2809 57.1155 13.4646 57.5617 13.6221C58.0078 13.7795 58.5328 13.8583 59.1102 13.8583C59.6351 13.8583 60.1338 13.8058 60.5538 13.6746C61 13.5696 61.3674 13.3858 61.6562 13.1759C61.9711 12.9659 62.2073 12.7034 62.3648 12.4147C62.5223 12.126 62.6273 11.811 62.6273 11.4698C62.6273 11.1024 62.5485 10.7612 62.3648 10.4987C62.2073 10.2362 61.9974 10 61.6824 9.79004Z" fill="white"/>
<path d="M69.6877 6.79804C69.3727 6.45683 69.0052 6.19436 68.559 6.01064C68.1128 5.82691 67.6142 5.72192 67.063 5.72192C66.5118 5.72192 66.0131 5.82691 65.5407 6.01064C65.0682 6.22061 64.6745 6.48308 64.3333 6.85053C63.9921 7.21799 63.7296 7.63793 63.5459 8.13662C63.3622 8.63531 63.2572 9.18649 63.2572 9.76392V10.0526C63.2572 10.5776 63.3622 11.0763 63.5459 11.5224C63.7296 11.9949 64.0184 12.3886 64.3596 12.7298C64.7008 13.071 65.1207 13.3335 65.6194 13.5434C66.1181 13.7534 66.6693 13.8322 67.273 13.8322C68.0341 13.8322 68.6903 13.6747 69.2415 13.386C69.7926 13.0973 70.2126 12.756 70.4488 12.4148L69.4514 11.3387C69.2152 11.6274 68.9265 11.8637 68.559 12.0211C68.1916 12.1786 67.7979 12.2574 67.4042 12.2574C67.1155 12.2574 66.8793 12.2049 66.643 12.1261C66.4068 12.0474 66.1968 11.9161 66.0131 11.7587C65.8294 11.6012 65.6982 11.4437 65.5932 11.2337C65.4882 11.05 65.4094 10.7875 65.3307 10.4726V10.4463H70.6325V9.60644C70.6325 9.02901 70.5538 8.50408 70.3963 8.03164C70.2126 7.55919 69.9764 7.13925 69.6877 6.79804ZM68.6378 9.05526H65.3307C65.3832 8.79279 65.4619 8.55657 65.5407 8.37284C65.6457 8.16287 65.7506 7.97914 65.9081 7.84791C66.0394 7.69043 66.2231 7.58544 66.4068 7.5067C66.5905 7.42796 66.8005 7.37547 67.0367 7.37547C67.2992 7.37547 67.5092 7.42796 67.7191 7.5067C67.9029 7.58544 68.0866 7.69043 68.2178 7.82166C68.3491 7.95289 68.4541 8.13662 68.5328 8.32035C68.6115 8.50408 68.6378 8.71405 68.6378 8.92402V9.05526Z" fill="white"/>
<path d="M72.6798 11.2075C72.2336 11.2075 71.8924 11.3388 71.6562 11.6012C71.4199 11.8637 71.2887 12.1786 71.2887 12.5461C71.2887 12.9136 71.4199 13.2285 71.6562 13.491C71.8924 13.7535 72.2336 13.8584 72.6798 13.8584C73.0997 13.8584 73.4409 13.7272 73.7034 13.491C73.9659 13.2548 74.0709 12.9398 74.0709 12.5461C74.0709 12.1786 73.9396 11.8637 73.7034 11.6012C73.4672 11.3388 73.126 11.2075 72.6798 11.2075Z" fill="white"/>
<path d="M79.7664 5.74805C79.2415 5.74805 78.769 5.87928 78.3228 6.1155C77.8766 6.37797 77.5092 6.71918 77.168 7.16537L77.1417 6.98164L77.063 5.87928H75.1995V13.7008H77.2205V9.00264C77.2992 8.79267 77.4304 8.58269 77.5617 8.42521C77.6929 8.26773 77.8766 8.1365 78.0604 8.03151C78.2178 7.95277 78.4016 7.87403 78.6115 7.82154C78.8215 7.76904 79.0577 7.7428 79.3202 7.7428C79.5827 7.7428 79.8451 7.76905 80.1076 7.79529C80.3963 7.82154 80.6588 7.87403 80.9212 7.92653L81.21 5.93177C81.0525 5.87928 80.8425 5.82679 80.58 5.80054C80.3438 5.77429 80.0551 5.74805 79.7664 5.74805Z" fill="white"/>
<path d="M88.2966 11.8373V8.47771C88.2966 8.03151 88.2178 7.63781 88.0341 7.27036C87.8504 6.90291 87.6404 6.64044 87.3254 6.40422C87.0367 6.168 86.6693 6.01052 86.2756 5.87928C85.8556 5.7743 85.4357 5.69556 84.9632 5.69556C84.4383 5.69556 83.9659 5.7743 83.5722 5.90553C83.1785 6.03676 82.811 6.22049 82.5485 6.45671C82.2598 6.69293 82.0498 6.9554 81.8924 7.24411C81.7349 7.53283 81.6824 7.84779 81.6824 8.189H83.7034C83.7034 8.05776 83.7296 7.92653 83.7559 7.79529C83.8084 7.69031 83.8609 7.58532 83.9396 7.50658C84.0446 7.42784 84.1496 7.3491 84.3071 7.29661C84.4645 7.24411 84.6483 7.21787 84.8582 7.21787C85.0945 7.21787 85.3044 7.24411 85.4882 7.29661C85.6719 7.3491 85.8294 7.45409 85.9344 7.55907C86.0393 7.66406 86.1443 7.79529 86.1968 7.92653C86.2493 8.08401 86.2756 8.24149 86.2756 8.42522V8.9239H85.147C84.5695 8.9239 84.0446 8.9764 83.5984 9.08138C83.1522 9.18637 82.7847 9.34385 82.4698 9.52758C82.1286 9.73755 81.8924 10.0263 81.7086 10.3675C81.5512 10.7087 81.4462 11.0761 81.4462 11.5223C81.4462 11.8635 81.5249 12.1785 81.6561 12.4672C81.7874 12.7559 81.9711 12.9921 82.2073 13.2021C82.4435 13.4121 82.7323 13.5696 83.0735 13.6746C83.4147 13.7795 83.7821 13.8583 84.1758 13.8583C84.412 13.8583 84.6483 13.832 84.8582 13.7795C85.0682 13.7271 85.2782 13.6746 85.4357 13.5958C85.6194 13.5171 85.7769 13.4383 85.9081 13.3334C86.0656 13.2284 86.1706 13.1234 86.3018 12.9921C86.3281 13.1234 86.3543 13.2546 86.3805 13.3858C86.4068 13.5171 86.4593 13.6221 86.5118 13.7271H88.559V13.5958C88.454 13.3858 88.3753 13.1496 88.3228 12.8872C88.3228 12.5984 88.2966 12.2572 88.2966 11.8373ZM86.3018 11.4698C86.2493 11.5748 86.1706 11.6798 86.0656 11.7585C85.9606 11.8373 85.8556 11.9423 85.6981 12.021C85.5669 12.0998 85.4094 12.1522 85.2257 12.2047C85.042 12.2572 84.8582 12.2835 84.6745 12.2835C84.4908 12.2835 84.3333 12.2572 84.1758 12.2047C84.0446 12.1522 83.9134 12.0998 83.8084 12.021C83.7034 11.9423 83.6509 11.8373 83.5984 11.7323C83.5459 11.6273 83.5197 11.4961 83.5197 11.3386C83.5197 11.1549 83.5459 10.9974 83.6246 10.8399C83.7034 10.6824 83.8084 10.5512 83.9396 10.4462C84.0708 10.3412 84.2546 10.2625 84.4908 10.1837C84.7008 10.1313 84.9895 10.105 85.3044 10.105H86.3281V11.4698H86.3018Z" fill="white"/>
<path d="M94.0184 6.58813C93.7822 6.32567 93.4934 6.11569 93.1785 5.95821C92.8635 5.80073 92.4961 5.74824 92.1024 5.74824C91.6037 5.74824 91.1837 5.85323 90.8163 6.03695C90.4488 6.22068 90.1076 6.50939 89.8451 6.8506C89.5827 7.19181 89.3727 7.61176 89.2415 8.11044C89.1102 8.60913 89.0315 9.13407 89.0315 9.73774V9.89522C89.0315 10.4726 89.1102 10.9976 89.2415 11.47C89.3727 11.9425 89.5827 12.3624 89.8451 12.7299C90.1076 13.0711 90.4226 13.3598 90.79 13.5698C91.1575 13.7797 91.6037 13.8585 92.0761 13.8585C92.5223 13.8585 92.8898 13.7797 93.231 13.596C93.5722 13.4123 93.8609 13.2023 94.0971 12.8873L94.2021 13.701H96.0131V2.59863H93.9921V6.58813H94.0184ZM94.0184 11.3913C93.8871 11.6538 93.7034 11.8637 93.4672 11.995C93.231 12.1262 92.9423 12.2312 92.6011 12.2312C92.3123 12.2312 92.0761 12.1787 91.8661 12.0475C91.6562 11.9162 91.4987 11.7587 91.3937 11.5488C91.2625 11.3388 91.1837 11.1026 91.1312 10.8139C91.0787 10.5251 91.0525 10.2364 91.0525 9.89522V9.73774C91.0525 9.42278 91.0787 9.10782 91.1312 8.81911C91.1837 8.53039 91.2887 8.26792 91.3937 8.05795C91.5249 7.84798 91.6824 7.6905 91.8924 7.55926C92.1024 7.42803 92.3386 7.37554 92.6273 7.37554C92.9685 7.37554 93.2572 7.45428 93.4672 7.58551C93.7034 7.74299 93.8871 7.92672 94.0184 8.21543V11.3913Z" fill="white"/>
<path d="M99.4252 4.64586C99.5302 4.75085 99.6352 4.82959 99.7926 4.88208C99.9239 4.93458 100.081 4.96082 100.265 4.96082C100.633 4.96082 100.895 4.85583 101.105 4.67211C101.315 4.48838 101.42 4.22591 101.42 3.91095C101.42 3.59599 101.315 3.33353 101.105 3.1498C100.895 2.93982 100.606 2.86108 100.265 2.86108C100.081 2.86108 99.9239 2.88733 99.7926 2.93982C99.6614 2.99232 99.5302 3.07106 99.4252 3.1498C99.3202 3.25478 99.2415 3.35977 99.189 3.49101C99.1365 3.62224 99.1102 3.77972 99.1102 3.91095C99.1102 4.06843 99.1365 4.19967 99.189 4.3309C99.2415 4.43589 99.3202 4.56712 99.4252 4.64586Z" fill="white"/>
<path d="M101.289 5.87939H97.0367V7.53294H99.2677V12.0736H97.0367V13.7009H103.415V12.0736H101.289V5.87939Z" fill="white"/>
<path d="M110.606 8.13662C110.449 7.66418 110.213 7.24423 109.898 6.87678C109.583 6.50933 109.189 6.24686 108.743 6.03688C108.297 5.82691 107.772 5.72192 107.168 5.72192C106.564 5.72192 106.066 5.82691 105.593 6.03688C105.147 6.24686 104.753 6.50933 104.438 6.87678C104.123 7.24423 103.887 7.66418 103.703 8.13662C103.546 8.60906 103.467 9.16024 103.467 9.71143V9.86891C103.467 10.4463 103.546 10.9713 103.703 11.4437C103.861 11.9161 104.097 12.3361 104.438 12.7036C104.753 13.071 105.147 13.3335 105.593 13.5434C106.039 13.7534 106.564 13.8322 107.168 13.8322C107.745 13.8322 108.27 13.7272 108.717 13.5434C109.163 13.3335 109.556 13.071 109.871 12.7036C110.186 12.3361 110.423 11.9161 110.58 11.4437C110.738 10.9713 110.816 10.4201 110.816 9.86891V9.71143C110.842 9.16024 110.764 8.63531 110.606 8.13662ZM108.848 9.86891C108.848 10.1839 108.821 10.4988 108.743 10.7875C108.69 11.0763 108.585 11.3125 108.454 11.5224C108.323 11.7324 108.139 11.9161 107.929 12.0474C107.719 12.1786 107.457 12.2311 107.168 12.2311C106.853 12.2311 106.617 12.1786 106.381 12.0474C106.171 11.9161 105.987 11.7587 105.856 11.5224C105.724 11.3125 105.619 11.05 105.567 10.7875C105.514 10.4988 105.462 10.1839 105.462 9.86891V9.71143C105.462 9.39646 105.488 9.0815 105.567 8.81904C105.619 8.53032 105.724 8.2941 105.856 8.05788C105.987 7.84791 106.171 7.66418 106.381 7.53295C106.591 7.40171 106.853 7.34922 107.142 7.34922C107.457 7.34922 107.693 7.40171 107.903 7.53295C108.113 7.66418 108.297 7.82166 108.428 8.05788C108.559 8.26786 108.664 8.53032 108.717 8.81904C108.769 9.10775 108.821 9.39646 108.821 9.71143V9.86891H108.848Z" fill="white"/>
<path d="M9.89762 17.8742C9.58266 17.6117 10.2388 16.1157 10.58 15.3283C11.2887 13.6747 12.0761 11.785 11 10.3939C10.2388 9.42276 9.13647 9.37027 8.00786 9.60649C8.50655 8.47788 8.29657 7.24428 7.35169 6.27315C6.53804 5.43326 5.54067 5.09205 4.51705 5.35452C2.916 5.72197 1.60366 7.58549 1.15747 9.18654C0.842506 10.3676 0.973739 11.3388 1.55117 11.9424C1.55117 11.9424 1.57741 11.9424 1.57741 11.9687L1.60366 11.9949C3.04723 13.4648 5.17321 12.7036 6.87925 12.0999C7.6929 11.8112 9.08398 11.3125 9.3202 11.6275C9.6614 12.0474 9.03148 13.5172 8.63778 14.4621C7.92912 16.1419 7.03673 18.2154 8.55904 19.449C9.00524 19.8165 9.47768 19.9739 10.0289 19.9739C12.3648 19.9739 15.3307 16.9556 16.3281 15.8532L14.7795 14.4359C12.7323 16.7193 10.3438 18.2417 9.89762 17.8742ZM4.67453 7.533C5.12072 7.24428 5.46193 7.27053 5.85563 7.69048C6.27558 8.13667 6.32807 8.50413 5.96062 9.00281C5.25195 10.0264 3.62466 10.5776 3.09972 10.4726C3.02098 9.9477 3.62466 8.21541 4.67453 7.533Z" fill="white"/>
<path d="M20.6325 8.05785C20.6062 8.0316 20.6062 8.0316 20.6325 8.05785C20.6062 8.0316 20.6062 8.0316 20.6062 8.0316C20.6062 8.0316 20.58 8.0316 20.58 8.00535C19.1364 6.50929 17.0104 7.27045 15.2782 7.87412C14.4645 8.16283 13.0734 8.66152 12.8372 8.34656C12.496 7.92661 13.1259 6.4568 13.5196 5.51192C14.2283 3.83213 15.1207 1.75864 13.5984 0.52504C11.2362 -1.44346 7.06294 2.78226 5.85559 4.12084L7.40415 5.53816C9.45139 3.28094 11.8398 1.75864 12.286 2.12609C12.601 2.38856 11.9448 3.88462 11.6036 4.67202C10.895 6.32556 10.1076 8.21533 11.1837 9.6064C11.7086 10.2888 12.391 10.4988 13.1259 10.4988C13.4671 10.4988 13.8083 10.4463 14.1758 10.3676C13.6771 11.4962 13.8871 12.7298 14.832 13.7009C15.4619 14.3571 16.223 14.6983 16.9842 14.6983C17.2204 14.6983 17.4304 14.672 17.6666 14.6195C19.2677 14.1996 20.58 12.3623 21.0262 10.7613C21.3412 9.63265 21.2099 8.66152 20.6325 8.05785ZM17.5091 12.4673C17.0629 12.756 16.7217 12.7298 16.328 12.3098C15.9081 11.8636 15.8556 11.4962 16.223 10.9975C16.8792 10.0526 18.3228 9.50142 18.9527 9.50142C19.0052 9.50142 19.0314 9.50142 19.0839 9.50142C19.1627 10.0526 18.559 11.7849 17.5091 12.4673Z" fill="white"/>
</svg>
