<svg width="163" height="34" viewBox="0 0 163 34" fill="none" xmlns="http://www.w3.org/2000/svg">
<path d="M51.4493 9.84759C51.8946 9.93688 52.2508 9.98152 52.518 10.0708L52.0282 13.4637C51.5829 13.3744 51.1376 13.2852 50.6477 13.2405C50.1579 13.1959 49.7126 13.1512 49.3118 13.1512C48.8665 13.1512 48.4657 13.1959 48.1094 13.2852C47.7532 13.3744 47.4415 13.4637 47.1743 13.6423C46.818 13.8209 46.5508 14.0441 46.3282 14.312C46.1055 14.5798 45.8829 14.937 45.7493 15.2941V23.2853H42.3204V9.98152H45.4821L45.6157 11.8566L45.6602 12.1691C46.1946 11.4101 46.8626 10.8297 47.6196 10.3833C48.3766 9.93688 49.1782 9.7583 50.0688 9.7583C50.5141 9.7583 51.004 9.80294 51.4493 9.84759Z" fill="white"/>
<path d="M56.9268 23.0175C56.0807 22.6603 55.3682 22.2139 54.7893 21.6335C54.2103 21.0531 53.7205 20.3835 53.4088 19.5799C53.0971 18.7763 52.9189 17.9727 52.9189 17.0798V16.5888C52.9189 15.562 53.0971 14.6244 53.4088 13.8208C53.7205 12.9726 54.1658 12.2583 54.7447 11.6333C55.3236 11.0083 55.9916 10.5619 56.7932 10.2047C57.5947 9.84755 58.4408 9.71362 59.376 9.71362C60.3111 9.71362 61.2018 9.8922 61.9143 10.2047C62.6268 10.5172 63.2947 10.9636 63.8291 11.544C64.3635 12.1244 64.7197 12.794 64.9869 13.5976C65.2541 14.4012 65.3877 15.2941 65.3877 16.2762V17.7048H56.3924V17.7495C56.526 18.2852 56.6596 18.7317 56.8377 19.0442C57.0158 19.3567 57.2385 19.6692 57.5502 19.937C57.8619 20.2049 58.2182 20.4281 58.6189 20.562C59.0197 20.696 59.465 20.7853 59.9103 20.7853C60.5783 20.7853 61.2463 20.6513 61.8697 20.3835C62.4932 20.1156 63.0275 19.7585 63.3838 19.2227L65.076 21.0531C64.6307 21.6781 63.9627 22.2139 63.0275 22.7049C62.0924 23.196 60.9791 23.4639 59.6877 23.4639C58.708 23.5532 57.7728 23.3746 56.9268 23.0175ZM58.2627 12.7048C57.951 12.8387 57.6838 13.0173 57.4166 13.2851C57.1494 13.553 56.9713 13.8208 56.7932 14.178C56.615 14.5351 56.526 14.9369 56.4369 15.3387H62.0478V15.0709C62.0478 14.7137 62.0033 14.3566 61.8697 14.0441C61.7361 13.7316 61.558 13.4637 61.3353 13.1958C61.1127 12.9726 60.8455 12.794 60.4893 12.6601C60.1775 12.5262 59.7768 12.4369 59.3314 12.4369C58.9307 12.5262 58.5744 12.5708 58.2627 12.7048Z" fill="white"/>
<path d="M78.4353 18.5978C78.3462 19.1782 78.2126 19.7139 78.0345 20.1604C77.8563 20.6961 77.5892 21.1872 77.2774 21.589C76.9657 22.0354 76.6095 22.3925 76.2087 22.6604C75.8524 22.9283 75.4071 23.1515 74.9618 23.2854C74.472 23.4193 73.9821 23.5086 73.4032 23.5086C72.8689 23.5086 72.4235 23.464 71.9782 23.3301C71.5329 23.1961 71.1767 23.0176 70.865 22.7497C70.6868 22.6158 70.5087 22.4818 70.3751 22.3479C70.2415 22.214 70.0634 22.0354 69.9298 21.8568L69.7517 23.2854H66.679V4.40112H70.1079V11.187C70.286 11.0084 70.4642 10.8298 70.6423 10.6512C70.8204 10.4727 71.0431 10.3387 71.2212 10.2495C71.5329 10.0709 71.8446 9.93694 72.2009 9.84766C72.5571 9.75837 72.9579 9.71373 73.3587 9.71373C73.9376 9.71373 74.472 9.80301 74.9173 9.93694C75.4071 10.0709 75.8079 10.2941 76.2087 10.562C76.5204 10.7852 76.7876 11.053 77.0103 11.3209C77.2329 11.5888 77.4556 11.9459 77.6782 12.3031C77.9899 12.8834 78.2126 13.5084 78.3462 14.2227C78.4798 14.937 78.5688 15.696 78.5688 16.4996V16.7674C78.5688 17.4371 78.5243 18.0175 78.4353 18.5978ZM75.0954 15.5174C75.0509 15.2049 75.0064 14.8924 74.9173 14.5799C74.8282 14.2227 74.6946 13.9549 74.561 13.687C74.4274 13.4192 74.2048 13.1959 73.9376 12.9727C73.7595 12.8388 73.5368 12.7495 73.3142 12.6602C73.0915 12.5709 72.8243 12.5709 72.5126 12.5709C72.1118 12.5709 71.7556 12.6156 71.4439 12.7495C71.1321 12.8834 70.865 13.0174 70.6423 13.2406C70.5532 13.3299 70.4196 13.4638 70.3306 13.5977C70.2415 13.7317 70.1525 13.8656 70.0634 14.0442V19.3568C70.1525 19.58 70.286 19.7586 70.4196 19.9371C70.5532 20.1157 70.6868 20.2496 70.865 20.3836C71.0876 20.5175 71.3103 20.6514 71.5774 20.7407C71.8446 20.83 72.1564 20.8747 72.5126 20.8747C72.8243 20.8747 73.0915 20.83 73.3142 20.7854C73.5368 20.7407 73.7595 20.6068 73.9376 20.4729C74.2048 20.2943 74.3829 20.0711 74.561 19.7586C74.7392 19.4461 74.8282 19.1335 74.9173 18.7764C74.9618 18.5085 75.0509 18.196 75.0509 17.8835C75.0954 17.571 75.0954 17.2139 75.0954 16.9014V16.4996C75.1399 16.1871 75.1399 15.8299 75.0954 15.5174Z" fill="white"/>
<path d="M88.0094 22.7496C87.9649 22.5264 87.9204 22.3031 87.8759 22.0799C87.6977 22.3031 87.4751 22.4817 87.2079 22.6603C86.9407 22.8389 86.6735 23.0174 86.4063 23.1067C86.0946 23.2407 85.7829 23.3746 85.4266 23.4192C85.0704 23.5085 84.6696 23.5532 84.2688 23.5532C83.6009 23.5532 82.9774 23.4639 82.3985 23.2407C81.8196 23.0621 81.3298 22.7496 80.929 22.4371C80.5282 22.0799 80.2165 21.6781 79.9938 21.1871C79.7712 20.696 79.6376 20.1603 79.6376 19.5799C79.6376 18.8209 79.7712 18.1959 80.0829 17.6156C80.3501 17.0352 80.7954 16.5888 81.3743 16.187C81.9087 15.8298 82.5321 15.6066 83.2891 15.428C84.0462 15.2494 84.8923 15.1602 85.9165 15.1602H87.8313V14.3566C87.8313 14.0441 87.7868 13.7762 87.6977 13.5083C87.6087 13.2405 87.4305 13.0619 87.2524 12.8833C87.0298 12.7048 86.8071 12.5708 86.4954 12.4369C86.1837 12.303 85.8274 12.303 85.4266 12.303C85.0704 12.303 84.7587 12.3476 84.4915 12.4369C84.2243 12.5262 84.0016 12.6601 83.868 12.794C83.7344 12.928 83.6009 13.1065 83.5563 13.2851C83.4673 13.4637 83.4673 13.6869 83.4673 13.9548H80.0384C80.0384 13.3744 80.1719 12.8387 80.3946 12.3476C80.6618 11.8565 81.018 11.4101 81.5079 11.0083C81.9977 10.6065 82.5766 10.3386 83.2446 10.0708C83.9126 9.80291 84.7141 9.71362 85.6048 9.71362C86.4063 9.71362 87.1633 9.80291 87.8313 10.0261C88.5438 10.2047 89.1227 10.5172 89.6126 10.919C90.1024 11.3208 90.5032 11.8119 90.8149 12.3922C91.1266 12.9726 91.2602 13.6423 91.2602 14.4459V20.1603C91.2602 20.8746 91.3048 21.4549 91.3938 21.946C91.4829 22.3924 91.6165 22.7942 91.7946 23.1514V23.3746H88.1876C88.0985 23.1514 88.054 22.9282 88.0094 22.7496ZM85.9165 20.7853C86.2282 20.696 86.4954 20.6067 86.718 20.4728C86.9407 20.3388 87.1634 20.2049 87.3415 20.0263C87.5196 19.8477 87.6532 19.6692 87.7423 19.5352V17.2584H85.961C85.4266 17.2584 84.9813 17.3031 84.5805 17.3923C84.2243 17.4816 83.9126 17.6156 83.6454 17.8388C83.4227 18.0174 83.2446 18.2406 83.111 18.5084C82.9774 18.7763 82.9329 19.0442 82.9329 19.3567C82.9329 19.5799 82.9774 19.8031 83.0665 20.0263C83.1555 20.2495 83.2891 20.3835 83.4227 20.5174C83.6009 20.6513 83.779 20.7406 84.0462 20.8299C84.2688 20.9192 84.5805 20.9638 84.8923 20.9638C85.293 20.8746 85.6048 20.8745 85.9165 20.7853Z" fill="white"/>
<path d="M101.146 19.0888C101.057 18.9549 100.879 18.7763 100.656 18.6424C100.389 18.5085 100.077 18.3745 99.6765 18.2853C99.2758 18.196 98.7859 18.062 98.1625 17.9281C97.4055 17.7942 96.693 17.571 96.025 17.3477C95.4016 17.1245 94.8226 16.812 94.3773 16.4995C93.932 16.187 93.5758 15.7852 93.3086 15.3388C93.0414 14.8923 92.9078 14.4012 92.9078 13.8209C92.9078 13.2852 93.0414 12.7494 93.3086 12.2583C93.5758 11.7673 93.932 11.3208 94.4219 10.9637C94.9117 10.6065 95.4906 10.294 96.2031 10.0708C96.9156 9.84759 97.7172 9.7583 98.5633 9.7583C99.4984 9.7583 100.3 9.84759 101.057 10.0708C101.814 10.294 102.437 10.6065 102.927 10.9637C103.417 11.3655 103.818 11.8119 104.085 12.3476C104.352 12.8834 104.486 13.4637 104.486 14.0441H101.057C101.057 13.8209 101.012 13.5977 100.968 13.4191C100.879 13.2405 100.79 13.0619 100.656 12.8834C100.434 12.6601 100.166 12.5262 99.8101 12.3923C99.4539 12.2583 99.0531 12.2137 98.5633 12.2137C98.1625 12.2137 97.7617 12.2583 97.45 12.3476C97.1383 12.4369 96.8711 12.5262 96.693 12.7048C96.5148 12.8387 96.3812 12.9726 96.2922 13.1512C96.2031 13.3298 96.1586 13.5084 96.1586 13.7316C96.1586 13.9548 96.2031 14.0887 96.2922 14.2673C96.3812 14.4459 96.5148 14.5798 96.7375 14.7138C96.9601 14.8477 97.2273 14.9816 97.5836 15.0709C97.9398 15.1602 98.3851 15.2941 98.964 15.3388C99.7656 15.4727 100.523 15.6513 101.191 15.8298C101.859 16.0531 102.482 16.2763 102.972 16.6334C103.462 16.9459 103.862 17.3477 104.13 17.8388C104.397 18.2853 104.575 18.8656 104.575 19.4906C104.575 20.071 104.441 20.6067 104.13 21.0978C103.862 21.5889 103.462 22.0353 102.927 22.3925C102.393 22.7496 101.77 23.0175 101.057 23.2407C100.3 23.4639 99.4984 23.5532 98.6078 23.5532C97.6281 23.5532 96.7375 23.4193 95.9805 23.1514C95.2234 22.8836 94.5555 22.5264 94.0656 22.1246C93.5312 21.7228 93.175 21.2317 92.9078 20.696C92.6406 20.1603 92.507 19.6246 92.507 19.0888H95.7578C95.8023 19.446 95.8914 19.7585 96.0695 20.0264C96.2476 20.2942 96.4703 20.4728 96.7375 20.6514C97.0047 20.8299 97.3164 20.9192 97.6726 21.0085C98.0289 21.0978 98.3851 21.0978 98.7414 21.0978C99.1867 21.0978 99.5875 21.0532 99.8992 20.9639C100.211 20.8746 100.523 20.7853 100.701 20.6514C100.923 20.5174 101.057 20.3835 101.146 20.2049C101.235 20.0264 101.28 19.8478 101.28 19.6246C101.28 19.446 101.235 19.2674 101.146 19.0888Z" fill="white"/>
<path d="M109.696 23.0175C108.85 22.6603 108.138 22.2139 107.559 21.6335C106.98 21.0531 106.49 20.3835 106.178 19.5799C105.866 18.7763 105.688 17.9727 105.688 17.0798V16.5888C105.688 15.562 105.866 14.6244 106.178 13.8208C106.49 12.9726 106.935 12.2583 107.514 11.6333C108.093 11.0083 108.761 10.5619 109.563 10.2047C110.364 9.84755 111.21 9.71362 112.145 9.71362C113.08 9.71362 113.971 9.8922 114.684 10.2047C115.396 10.5172 116.064 10.9636 116.598 11.544C117.133 12.1244 117.489 12.794 117.756 13.5976C118.023 14.4012 118.157 15.2941 118.157 16.2762V17.7048H109.117V17.7495C109.251 18.2852 109.384 18.7317 109.563 19.0442C109.741 19.3567 109.963 19.6692 110.275 19.937C110.587 20.2049 110.943 20.4281 111.344 20.562C111.745 20.696 112.19 20.7853 112.635 20.7853C113.303 20.7853 113.971 20.6513 114.595 20.3835C115.218 20.1156 115.752 19.7585 116.109 19.2227L117.801 21.0531C117.355 21.6781 116.688 22.2139 115.752 22.7049C114.817 23.196 113.704 23.4639 112.413 23.4639C111.433 23.5532 110.498 23.3746 109.696 23.0175ZM110.988 12.7048C110.676 12.8387 110.409 13.0173 110.141 13.2851C109.874 13.553 109.696 13.8208 109.518 14.178C109.34 14.5351 109.251 14.9369 109.162 15.3387H114.773V15.0709C114.773 14.7137 114.728 14.3566 114.595 14.0441C114.461 13.7316 114.283 13.4637 114.06 13.1958C113.838 12.9726 113.57 12.794 113.214 12.6601C112.902 12.5262 112.502 12.4369 112.056 12.4369C111.655 12.5262 111.344 12.5708 110.988 12.7048Z" fill="white"/>
<path d="M119.894 19.7141C120.294 19.2677 120.873 19.0444 121.63 19.0444C122.387 19.0444 122.966 19.2677 123.367 19.7141C123.768 20.1605 123.991 20.6962 123.991 21.3213C123.991 21.9463 123.768 22.482 123.367 22.9284C122.966 23.3749 122.343 23.5534 121.63 23.5534C120.918 23.5534 120.339 23.3302 119.894 22.9284C119.448 22.5266 119.27 21.9909 119.27 21.3213C119.27 20.6962 119.493 20.1605 119.894 19.7141Z" fill="white"/>
<path d="M133.698 22.7496C133.654 22.5264 133.609 22.3031 133.565 22.0799C133.387 22.3031 133.164 22.4817 132.897 22.6603C132.63 22.8389 132.362 23.0174 132.095 23.1067C131.784 23.2407 131.472 23.3746 131.116 23.4192C130.759 23.5085 130.358 23.5532 129.958 23.5532C129.29 23.5532 128.666 23.4639 128.087 23.2407C127.509 23.0621 127.019 22.7496 126.618 22.4371C126.217 22.0799 125.905 21.6781 125.683 21.1871C125.46 20.696 125.326 20.1603 125.326 19.5799C125.326 18.8209 125.46 18.1959 125.772 17.6156C126.039 17.0352 126.484 16.5888 127.063 16.187C127.598 15.8298 128.221 15.6066 128.978 15.428C129.735 15.2494 130.581 15.1602 131.605 15.1602H133.52V14.3566C133.52 14.0441 133.476 13.7762 133.387 13.5083C133.298 13.2405 133.119 13.0619 132.941 12.8833C132.719 12.7048 132.496 12.5708 132.184 12.4369C131.873 12.303 131.516 12.303 131.116 12.303C130.759 12.303 130.448 12.3476 130.18 12.4369C129.913 12.5262 129.691 12.6601 129.557 12.794C129.423 12.928 129.29 13.1065 129.245 13.2851C129.156 13.4637 129.156 13.6869 129.156 13.9548H125.594C125.594 13.3744 125.727 12.8387 125.95 12.3476C126.217 11.8565 126.573 11.4101 127.063 11.0083C127.553 10.6065 128.132 10.3386 128.8 10.0708C129.468 9.80291 130.269 9.71362 131.16 9.71362C131.962 9.71362 132.719 9.80291 133.387 10.0261C134.099 10.2047 134.678 10.5172 135.168 10.919C135.658 11.3208 136.059 11.8119 136.37 12.3922C136.682 12.9726 136.816 13.6423 136.816 14.4459V20.1603C136.816 20.8746 136.86 21.4549 136.949 21.946C137.038 22.3924 137.172 22.7942 137.35 23.1514V23.3746H133.876C133.832 23.1514 133.743 22.9282 133.698 22.7496ZM131.605 20.7853C131.917 20.696 132.184 20.6067 132.407 20.4728C132.63 20.3388 132.852 20.2049 133.03 20.0263C133.209 19.8477 133.342 19.6692 133.431 19.5352V17.2584H131.694C131.16 17.2584 130.715 17.3031 130.314 17.3923C129.958 17.4816 129.646 17.6156 129.379 17.8388C129.156 18.0174 128.978 18.2406 128.844 18.5084C128.711 18.7763 128.666 19.0442 128.666 19.3567C128.666 19.5799 128.711 19.8031 128.8 20.0263C128.889 20.2495 129.023 20.3835 129.156 20.5174C129.334 20.6513 129.512 20.7406 129.78 20.8299C130.002 20.9192 130.314 20.9638 130.626 20.9638C130.982 20.8746 131.338 20.8745 131.605 20.7853Z" fill="white"/>
<path d="M149.373 9.84759C149.819 9.93688 150.175 9.98152 150.442 10.0708L149.952 13.4637C149.507 13.3744 149.062 13.2852 148.572 13.2405C148.082 13.1959 147.637 13.1512 147.236 13.1512C146.791 13.1512 146.39 13.1959 146.034 13.2852C145.677 13.3744 145.366 13.4637 145.098 13.6423C144.742 13.8209 144.475 14.0441 144.252 14.312C144.03 14.5798 143.807 14.937 143.673 15.2941V23.2853H140.245V9.98152H143.406L143.54 11.8566L143.584 12.1691C144.119 11.4101 144.787 10.8297 145.544 10.3833C146.301 9.93688 147.102 9.7583 147.993 9.7583C148.483 9.7583 148.928 9.80294 149.373 9.84759Z" fill="white"/>
<path d="M157.478 9.98168H162.421V12.4817H157.478V18.1961C157.478 18.6872 157.523 19.089 157.656 19.4015C157.745 19.714 157.923 19.9819 158.146 20.1604C158.369 20.339 158.591 20.5176 158.903 20.5622C159.215 20.6515 159.527 20.6962 159.883 20.6962C160.15 20.6962 160.417 20.6962 160.684 20.6515C160.951 20.6069 161.219 20.6069 161.486 20.5622C161.709 20.5176 161.976 20.473 162.198 20.473C162.421 20.4283 162.599 20.3837 162.777 20.339L163 22.7498C162.777 22.8837 162.466 23.0176 162.154 23.1069C161.842 23.1962 161.486 23.2855 161.13 23.3748C160.773 23.4641 160.417 23.5087 160.016 23.5087C159.616 23.5534 159.259 23.5534 158.859 23.5534C158.146 23.5534 157.478 23.4641 156.899 23.2855C156.32 23.1069 155.786 22.7944 155.385 22.3926C154.94 21.9908 154.628 21.4551 154.405 20.8301C154.183 20.2051 154.049 19.4461 154.049 18.5533V12.5264H151.021V10.0263H154.049V6.76733H157.478V9.98168Z" fill="white"/>
<path d="M23.3501 24.5802C19.9212 28.3749 15.8688 30.9643 15.1118 30.3392C14.5774 29.8928 15.6907 27.3481 16.2696 26.0088C17.472 23.1963 18.8079 19.9819 16.9821 17.6158C15.6907 15.964 13.8204 15.8747 11.9056 16.2765C12.7516 14.3568 12.3954 12.2585 10.7923 10.6067C9.41181 9.17813 7.71962 8.59776 5.9829 9.04419C3.2665 9.71385 1.03994 12.8836 0.282904 15.6068C-0.25147 17.6158 -0.0288144 19.2676 0.950873 20.2944C0.950873 20.2944 0.995404 20.2944 0.995404 20.3391C0.995404 20.3391 0.995404 20.3391 0.995404 20.3837L1.03993 20.4283C3.48915 22.9284 7.09618 21.6337 9.99071 20.6069C11.3712 20.1158 13.7313 19.2676 14.1321 19.8033C14.711 20.5176 13.6423 23.0177 12.9743 24.6249C11.772 27.482 10.2579 31.0089 12.8407 33.1072C13.5977 33.7322 14.3993 34 15.3345 34C19.2977 34 24.3298 28.866 26.022 26.991L23.3501 24.5802ZM6.25009 12.7943C7.00712 12.3032 7.58602 12.3478 8.25399 13.0621C8.96649 13.8211 9.05555 14.4461 8.43212 15.2943C7.22977 17.0354 4.46884 17.9729 3.57821 17.7944C3.44462 16.9015 4.46884 13.955 6.25009 12.7943Z" fill="white"/>
<path d="M33.325 13.6871C33.2805 13.6425 33.2805 13.6425 33.325 13.6871C33.2805 13.6425 33.2805 13.6425 33.2805 13.6425C33.2805 13.6425 33.236 13.6425 33.236 13.5978C30.7868 11.0531 27.1797 12.3478 24.2407 13.3746C22.8602 13.8657 20.5001 14.7139 20.0993 14.1782C19.5204 13.4639 20.5891 10.9638 21.2571 9.35667C22.4594 6.49947 23.9735 2.97262 21.3907 0.874367C17.3829 -2.47391 10.3024 4.71373 8.25397 6.99056L10.8813 9.40132C14.3547 5.56196 18.4071 2.97262 19.1641 3.59763C19.6985 4.04407 18.5852 6.58876 18.0063 7.92807C16.804 10.7406 15.468 13.955 17.2938 16.3211C18.1844 17.4818 19.3422 17.839 20.5891 17.839C21.168 17.839 21.7469 17.7497 22.3704 17.6158C21.5243 19.5354 21.8805 21.6337 23.4836 23.2855C24.5524 24.4016 25.8438 24.982 27.1352 24.982C27.536 24.982 27.8922 24.9373 28.293 24.848C31.0094 24.1337 33.236 21.0087 33.993 18.2854C34.5274 16.3657 34.3047 14.7139 33.325 13.6871ZM28.0258 21.1873C27.2688 21.6783 26.6899 21.6337 26.0219 20.9194C25.3094 20.1605 25.2204 19.5354 25.8438 18.6872C26.9571 17.08 29.4063 16.1425 30.475 16.1425C30.5641 16.1425 30.6086 16.1425 30.6977 16.1425C30.8313 17.08 29.8071 20.0265 28.0258 21.1873Z" fill="white"/>
</svg>
