<svg width="18" height="22" viewBox="0 0 18 22" fill="none" xmlns="http://www.w3.org/2000/svg">
<path d="M18 16.757C18 13.8888 16.3278 11.4112 13.9091 10.2572V5.99603C13.9091 5.60794 13.7736 5.23271 13.523 4.93715L9.62642 0.292991C9.46278 0.0976636 9.23011 0 9 0C8.76989 0 8.53722 0.0976636 8.37358 0.292991L4.47699 4.93715C4.22812 5.23331 4.09138 5.60835 4.09091 5.99603V10.2572C1.67216 11.4112 0 13.8888 0 16.757H4.00142C3.94261 16.9421 3.91193 17.1425 3.91193 17.3687C3.91193 17.9367 4.10625 18.4918 4.45909 18.9313C4.7471 19.2907 5.12853 19.563 5.56108 19.7178C6.1517 21.1056 7.49403 22 9 22C9.74403 22 10.4651 21.779 11.0813 21.3626C11.6847 20.9565 12.1526 20.3886 12.4364 19.7178C12.8687 19.5639 13.2502 19.2926 13.5384 18.9339C13.8917 18.4904 14.0846 17.9394 14.0855 17.3713C14.0855 17.1554 14.0574 16.9498 14.0062 16.7596L18 16.757ZM9 6.88785C9.32115 6.89444 9.62695 7.02731 9.85175 7.25794C10.0766 7.48858 10.2025 7.79861 10.2025 8.1215C10.2025 8.44438 10.0766 8.75441 9.85175 8.98505C9.62695 9.21568 9.32115 9.34855 9 9.35514C8.67884 9.34855 8.37306 9.21568 8.14825 8.98505C7.92344 8.75441 7.79752 8.44438 7.79752 8.1215C7.79752 7.79861 7.92344 7.48858 8.14825 7.25794C8.37306 7.02731 8.67884 6.89444 9 6.88785ZM11.9685 17.9958C11.8355 18.0729 11.6821 18.1037 11.5312 18.0832L11.0327 18.0215L10.9611 18.5201C10.823 19.4942 9.97926 20.2292 9 20.2292C8.02074 20.2292 7.17699 19.4942 7.03892 18.5201L6.96733 18.0189L6.46875 18.0832C6.31718 18.1013 6.16382 18.0698 6.03153 17.9932C5.80909 17.8647 5.67102 17.6257 5.67102 17.3661C5.67102 17.0937 5.82187 16.8675 6.04432 16.7544H11.9582C12.1832 16.8701 12.3315 17.0963 12.3315 17.3661C12.329 17.6283 12.1909 17.8699 11.9685 17.9958Z" fill="#9346C7"/>
</svg>
