<svg className="ml-2" width="32" height="32" viewBox="0 0 32 32" fill="none" xmlns="http://www.w3.org/2000/svg">
	<path fillRule="evenodd" clipRule="evenodd" d="M16 32C24.8366 32 32 24.8366 32 16C32 7.16344 24.8366 0 16 0C7.16344 0 0 7.16344 0 16C0 24.8366 7.16344 32 16 32ZM20.8485 15.4116C23.2374 16.5455 24.8889 18.9798 24.8889 21.798L20.9444 21.8005C20.9949 21.9874 21.0227 22.1894 21.0227 22.4015C21.0218 22.9598 20.8313 23.5011 20.4823 23.9369C20.1977 24.2893 19.821 24.5559 19.3939 24.7071C19.1136 25.3662 18.6515 25.9242 18.0556 26.3232C17.447 26.7323 16.7348 26.9495 16 26.9495C14.5126 26.9495 13.1869 26.0707 12.6035 24.7071C12.1763 24.555 11.7996 24.2875 11.5152 23.9343C11.1667 23.5025 10.9747 22.9571 10.9747 22.399C10.9747 22.1768 11.0051 21.9798 11.0631 21.798H7.11111C7.11111 18.9798 8.76263 16.5455 11.1515 15.4116V11.2247C11.152 10.8438 11.287 10.4753 11.5328 10.1843L15.3813 5.62121C15.5429 5.42929 15.7727 5.33333 16 5.33333C16.2273 5.33333 16.4571 5.42929 16.6187 5.62121L20.4672 10.1843C20.7146 10.4747 20.8485 10.8434 20.8485 11.2247V15.4116ZM16.8412 12.4646C16.6192 12.238 16.3172 12.1075 16 12.101C15.6828 12.1075 15.3808 12.238 15.1588 12.4646C14.9367 12.6913 14.8124 12.9959 14.8124 13.3131C14.8124 13.6304 14.9367 13.935 15.1588 14.1616C15.3808 14.3882 15.6828 14.5188 16 14.5253C16.3172 14.5188 16.6192 14.3882 16.8412 14.1616C17.0633 13.935 17.1876 13.6304 17.1876 13.3131C17.1876 12.9959 17.0633 12.6913 16.8412 12.4646ZM18.5 23.101C18.649 23.1212 18.8005 23.0909 18.9318 23.0152C19.1515 22.8914 19.2879 22.654 19.2904 22.3965C19.2904 22.1313 19.1439 21.9091 18.9217 21.7955H13.0808C12.8611 21.9066 12.7121 22.1288 12.7121 22.3965C12.7121 22.6515 12.8485 22.8864 13.0682 23.0126C13.1988 23.0879 13.3503 23.1189 13.5 23.101L13.9924 23.0379L14.0631 23.5303C14.1995 24.4874 15.0328 25.2096 16 25.2096C16.9672 25.2096 17.8005 24.4874 17.9369 23.5303L18.0076 23.0404L18.5 23.101Z" fill="white" />
</svg>