<svg width="112" height="21" viewBox="0 0 112 21" fill="none" xmlns="http://www.w3.org/2000/svg">
<g filter="url(#filter0_d)">
<path d="M30.4751 5.74805C29.9502 5.74805 29.4778 5.87928 29.0316 6.1155C28.5854 6.37797 28.2179 6.71918 27.8767 7.16537L27.8505 6.98164L27.7717 5.87928H25.9082V13.7008H27.9292V9.00264C28.0079 8.79267 28.1392 8.58269 28.2704 8.42521C28.4016 8.26773 28.5854 8.1365 28.7691 8.03151C28.9266 7.95277 29.1103 7.87403 29.3203 7.82154C29.5303 7.76904 29.7665 7.7428 30.0289 7.7428C30.2914 7.7428 30.5539 7.76905 30.8163 7.79529C31.1051 7.82154 31.3675 7.87403 31.63 7.92653L31.9187 5.93177C31.7612 5.87928 31.5513 5.82679 31.2888 5.80054C31.0526 5.77429 30.7639 5.74805 30.4751 5.74805Z" fill="white"/>
<path d="M38.5852 6.7978C38.2703 6.45659 37.9028 6.19412 37.4566 6.01039C37.0104 5.82667 36.5117 5.72168 35.9606 5.72168C35.4094 5.72168 34.9107 5.82667 34.4383 6.01039C33.9658 6.22037 33.5721 6.48283 33.2309 6.85029C32.8897 7.21774 32.6272 7.63769 32.4435 8.13638C32.2598 8.63507 32.1548 9.18625 32.1548 9.76367V10.0524C32.1548 10.5773 32.2598 11.076 32.4435 11.5222C32.6272 11.9946 32.9159 12.3883 33.2571 12.7296C33.5984 13.0708 34.0183 13.3332 34.517 13.5432C35.0157 13.7532 35.5669 13.8319 36.1705 13.8319C36.9317 13.8319 37.5879 13.6744 38.139 13.3857C38.6902 13.097 39.1102 12.7558 39.3464 12.4146L38.349 11.3385C38.1128 11.6272 37.8241 11.8634 37.4566 12.0209C37.0892 12.1784 36.6955 12.2571 36.3018 12.2571C36.0131 12.2571 35.7768 12.2046 35.5406 12.1259C35.3044 12.0471 35.0944 11.9159 34.9107 11.7584C34.727 11.6009 34.5957 11.4435 34.4907 11.2335C34.3858 11.0498 34.307 10.7873 34.2283 10.4723V10.4461H39.5301V9.60619C39.5301 9.02877 39.4514 8.50383 39.2939 8.03139C39.1364 7.55895 38.9002 7.139 38.5852 6.7978ZM37.5616 9.05501H34.2545C34.307 8.79255 34.3858 8.55633 34.4645 8.3726C34.5695 8.16262 34.6745 7.9789 34.8319 7.84766C34.9632 7.69018 35.1469 7.5852 35.3306 7.50646C35.5144 7.42772 35.7243 7.37522 35.9606 7.37522C36.223 7.37522 36.433 7.42772 36.643 7.50646C36.8267 7.5852 37.0104 7.69018 37.1417 7.82142C37.2729 7.95265 37.3779 8.13638 37.4566 8.32011C37.5354 8.50383 37.5616 8.71381 37.5616 8.92378V9.05501Z" fill="white"/>
<path d="M46.7744 7.27006C46.6695 7.06009 46.5382 6.87636 46.3807 6.69263C46.2233 6.50891 46.0658 6.37767 45.9083 6.24644C45.6983 6.08896 45.4359 5.95772 45.1471 5.87898C44.8584 5.80024 44.5435 5.74775 44.2285 5.74775C43.9923 5.74775 43.7561 5.774 43.5461 5.82649C43.3361 5.87898 43.1524 5.95773 42.9687 6.06271C42.8374 6.14145 42.7325 6.22019 42.6275 6.29893C42.5225 6.37767 42.4175 6.48266 42.3125 6.61389V2.59814H40.2915V13.7005H42.1025L42.2075 12.8606C42.2863 12.9656 42.365 13.0706 42.47 13.1493C42.5487 13.2281 42.6537 13.3068 42.7587 13.3855C42.9687 13.543 43.1786 13.648 43.4149 13.7268C43.6511 13.8055 43.9398 13.8317 44.2548 13.8317C44.596 13.8317 44.8847 13.7792 45.1734 13.7005C45.4621 13.6218 45.6983 13.4905 45.9083 13.3331C46.1445 13.1756 46.3545 12.9394 46.5382 12.7031C46.7219 12.4407 46.8532 12.152 46.9844 11.8632C47.0894 11.5745 47.1681 11.2596 47.2206 10.9446C47.2731 10.6034 47.2994 10.2622 47.2994 9.86849V9.71101C47.2994 9.23856 47.2469 8.79237 47.1681 8.37242C47.0894 7.95248 46.9582 7.61127 46.7744 7.27006ZM45.2784 9.86849C45.2784 10.0785 45.2784 10.2622 45.2521 10.4459C45.2259 10.6296 45.1996 10.8134 45.1734 10.9708C45.1209 11.1808 45.0422 11.3908 44.9634 11.5483C44.8584 11.732 44.7534 11.8632 44.596 11.9682C44.491 12.047 44.3597 12.0995 44.2285 12.152C44.0973 12.2044 43.9135 12.2044 43.7561 12.2044C43.5461 12.2044 43.3624 12.1782 43.2049 12.1257C43.0474 12.0732 42.8899 12.0207 42.7849 11.9157C42.68 11.837 42.6012 11.7583 42.5225 11.6533C42.4437 11.5483 42.3912 11.4433 42.3125 11.3121V8.24119C42.365 8.16245 42.3912 8.05746 42.47 7.97872C42.5225 7.89998 42.575 7.82124 42.6537 7.76875C42.7849 7.63752 42.9424 7.53253 43.1261 7.48003C43.3099 7.40129 43.5198 7.37505 43.7561 7.37505C43.9398 7.37505 44.0973 7.40129 44.2285 7.42754C44.3597 7.45379 44.491 7.53253 44.596 7.61127C44.7534 7.7425 44.8847 7.87374 44.9634 8.03122C45.0422 8.1887 45.1209 8.37242 45.1734 8.55615C45.2259 8.71363 45.2521 8.89736 45.2784 9.10733C45.3046 9.29106 45.3046 9.50103 45.3046 9.71101V9.86849H45.2784Z" fill="white"/>
<path d="M54.7007 11.837V8.47746C54.7007 8.03127 54.622 7.63757 54.4383 7.27012C54.2545 6.90266 54.0446 6.64019 53.7296 6.40397C53.4409 6.16775 53.0734 6.01027 52.6797 5.87904C52.2598 5.77405 51.8398 5.69531 51.3674 5.69531C50.8425 5.69531 50.37 5.77405 49.9763 5.90529C49.5826 6.03652 49.2152 6.22025 48.9527 6.45647C48.664 6.69269 48.454 6.95516 48.2965 7.24387C48.1391 7.53258 48.0866 7.84754 48.0866 8.18875H50.1076C50.1076 8.05752 50.1338 7.92628 50.1601 7.79505C50.2125 7.69006 50.265 7.58508 50.3438 7.50634C50.4488 7.4276 50.5538 7.34886 50.7112 7.29636C50.8687 7.24387 51.0524 7.21762 51.2624 7.21762C51.4986 7.21762 51.7086 7.24387 51.8923 7.29636C52.0761 7.34886 52.2335 7.45384 52.3385 7.55883C52.4435 7.66382 52.5485 7.79505 52.601 7.92628C52.6535 8.08376 52.6797 8.24124 52.6797 8.42497V8.92366H51.5511C50.9737 8.92366 50.4488 8.97615 50.0026 9.08114C49.5564 9.18613 49.1889 9.34361 48.874 9.52733C48.5328 9.73731 48.2965 10.026 48.1128 10.3672C47.9553 10.7084 47.8503 11.0759 47.8503 11.5221C47.8503 11.8633 47.9291 12.1783 48.0603 12.467C48.1916 12.7557 48.3753 12.9919 48.6115 13.2019C48.8477 13.4118 49.1364 13.5693 49.4776 13.6743C49.8188 13.7793 50.1863 13.858 50.58 13.858C50.8162 13.858 51.0524 13.8318 51.2624 13.7793C51.4724 13.7268 51.6824 13.6743 51.8398 13.5956C52.0236 13.5168 52.1811 13.4381 52.3123 13.3331C52.4698 13.2281 52.5748 13.1231 52.706 12.9919C52.7322 13.1231 52.7585 13.2544 52.7847 13.3856C52.811 13.5168 52.8635 13.6218 52.916 13.7268H54.9632V13.5956C54.8582 13.3856 54.7795 13.1494 54.727 12.8869C54.727 12.5982 54.7007 12.257 54.7007 11.837ZM52.6797 11.4696C52.6272 11.5746 52.5485 11.6796 52.4435 11.7583C52.3385 11.837 52.2335 11.942 52.0761 12.0208C51.9448 12.0995 51.7874 12.152 51.6036 12.2045C51.4199 12.257 51.2362 12.2832 51.0524 12.2832C50.8687 12.2832 50.7112 12.257 50.5538 12.2045C50.4225 12.152 50.2913 12.0995 50.1863 12.0208C50.0813 11.942 50.0288 11.837 49.9763 11.7321C49.9238 11.6271 49.8976 11.4958 49.8976 11.3384C49.8976 11.1546 49.9238 10.9971 50.0026 10.8397C50.0813 10.6822 50.1863 10.551 50.3175 10.446C50.4488 10.341 50.6325 10.2622 50.8687 10.1835C51.0787 10.131 51.3674 10.1048 51.6824 10.1048H52.706V11.4696H52.6797Z" fill="white"/>
<path d="M61.6824 9.79004C61.3937 9.60631 61.0262 9.44883 60.6325 9.3176C60.2388 9.18637 59.7926 9.10763 59.3202 9.02889C59.0052 8.97639 58.7165 8.9239 58.5065 8.87141C58.2966 8.81891 58.1391 8.74017 58.0078 8.66143C57.8766 8.58269 57.7979 8.50395 57.7454 8.39897C57.6929 8.29398 57.6666 8.18899 57.6666 8.084C57.6666 7.97902 57.6929 7.84778 57.7454 7.7428C57.7979 7.63781 57.8766 7.55907 57.9816 7.48033C58.0866 7.40159 58.2441 7.32285 58.4278 7.27036C58.6115 7.21786 58.8215 7.19162 59.084 7.19162C59.3727 7.19162 59.6089 7.21786 59.8189 7.2966C60.0289 7.37534 60.1863 7.45408 60.3176 7.58532C60.3963 7.66406 60.475 7.76904 60.5013 7.90028C60.5538 8.00526 60.5538 8.1365 60.5538 8.26773H62.5748C62.5748 7.90028 62.496 7.55907 62.3386 7.27036C62.1811 6.9554 61.9449 6.69293 61.6562 6.45671C61.3412 6.24673 60.9737 6.06301 60.5538 5.93177C60.1076 5.80054 59.6351 5.74805 59.084 5.74805C58.559 5.74805 58.0866 5.80054 57.6929 5.93177C57.2729 6.06301 56.9317 6.24673 56.643 6.45671C56.3543 6.66668 56.1443 6.92915 55.9868 7.21786C55.8294 7.50658 55.7506 7.82154 55.7506 8.1365C55.7506 8.47771 55.8294 8.76642 55.9868 9.02889C56.1443 9.29135 56.3543 9.50133 56.6168 9.7113C56.8792 9.92128 57.2204 10.0788 57.5879 10.21C57.9554 10.3412 58.3753 10.4725 58.8477 10.5512C59.2152 10.6299 59.5039 10.6824 59.7401 10.7612C59.9764 10.8399 60.1601 10.8924 60.3176 10.9711C60.4488 11.0499 60.5538 11.1286 60.6063 11.2336C60.6588 11.3386 60.685 11.4436 60.685 11.5486C60.685 11.6798 60.6588 11.7848 60.6063 11.8898C60.5538 11.9948 60.4488 12.0735 60.3438 12.1522C60.2126 12.231 60.0551 12.2835 59.8714 12.336C59.6876 12.3885 59.4514 12.4147 59.189 12.4147C58.979 12.4147 58.769 12.3885 58.559 12.3622C58.3491 12.3097 58.1653 12.2572 58.0078 12.1522C57.8504 12.0735 57.7191 11.9423 57.6141 11.7848C57.5092 11.6273 57.4567 11.4436 57.4304 11.2336H55.5144C55.5144 11.5486 55.5931 11.8635 55.7506 12.1785C55.9081 12.4935 56.1443 12.7822 56.433 13.0184C56.748 13.2809 57.1155 13.4646 57.5617 13.6221C58.0078 13.7795 58.5328 13.8583 59.1102 13.8583C59.6351 13.8583 60.1338 13.8058 60.5538 13.6746C61 13.5696 61.3674 13.3858 61.6562 13.1759C61.9711 12.9659 62.2073 12.7034 62.3648 12.4147C62.5223 12.126 62.6273 11.811 62.6273 11.4698C62.6273 11.1024 62.5485 10.7612 62.3648 10.4987C62.2073 10.2362 61.9974 10 61.6824 9.79004Z" fill="white"/>
<path d="M69.6878 6.7978C69.3728 6.45659 69.0054 6.19412 68.5592 6.01039C68.113 5.82667 67.6143 5.72168 67.0631 5.72168C66.5119 5.72168 66.0132 5.82667 65.5408 6.01039C65.0683 6.22037 64.6746 6.48283 64.3334 6.85029C63.9922 7.21774 63.7298 7.63769 63.546 8.13638C63.3623 8.63507 63.2573 9.18625 63.2573 9.76367V10.0524C63.2573 10.5773 63.3623 11.076 63.546 11.5222C63.7298 11.9946 64.0185 12.3883 64.3597 12.7296C64.7009 13.0708 65.1208 13.3332 65.6195 13.5432C66.1182 13.7532 66.6694 13.8319 67.2731 13.8319C68.0342 13.8319 68.6904 13.6744 69.2416 13.3857C69.7928 13.097 70.2127 12.7558 70.4489 12.4146L69.4515 11.3385C69.2153 11.6272 68.9266 11.8634 68.5592 12.0209C68.1917 12.1784 67.798 12.2571 67.4043 12.2571C67.1156 12.2571 66.8794 12.2046 66.6432 12.1259C66.4069 12.0471 66.197 11.9159 66.0132 11.7584C65.8295 11.6009 65.6983 11.4435 65.5933 11.2335C65.4883 11.0498 65.4096 10.7873 65.3308 10.4723V10.4461H70.6327V9.60619C70.6327 9.02877 70.5539 8.50383 70.3964 8.03139C70.2127 7.55895 69.9765 7.139 69.6878 6.7978ZM68.6379 9.05501H65.3308C65.3833 8.79255 65.462 8.55633 65.5408 8.3726C65.6458 8.16262 65.7508 7.9789 65.9082 7.84766C66.0395 7.69018 66.2232 7.5852 66.4069 7.50646C66.5907 7.42772 66.8006 7.37522 67.0369 7.37522C67.2993 7.37522 67.5093 7.42772 67.7193 7.50646C67.903 7.5852 68.0867 7.69018 68.218 7.82142C68.3492 7.95265 68.4542 8.13638 68.5329 8.32011C68.6117 8.50383 68.6379 8.71381 68.6379 8.92378V9.05501Z" fill="white"/>
<path d="M72.6797 11.207C72.2335 11.207 71.8923 11.3383 71.656 11.6007C71.4198 11.8632 71.2886 12.1782 71.2886 12.5456C71.2886 12.9131 71.4198 13.228 71.656 13.4905C71.8923 13.753 72.2335 13.8579 72.6797 13.8579C73.0996 13.8579 73.4408 13.7267 73.7033 13.4905C73.9657 13.2543 74.0707 12.9393 74.0707 12.5456C74.0707 12.1782 73.9395 11.8632 73.7033 11.6007C73.4671 11.3383 73.1259 11.207 72.6797 11.207Z" fill="white"/>
<path d="M79.7664 5.74805C79.2415 5.74805 78.769 5.87928 78.3228 6.1155C77.8766 6.37797 77.5092 6.71918 77.168 7.16537L77.1417 6.98164L77.063 5.87928H75.1995V13.7008H77.2205V9.00264C77.2992 8.79267 77.4304 8.58269 77.5617 8.42521C77.6929 8.26773 77.8766 8.1365 78.0604 8.03151C78.2178 7.95277 78.4016 7.87403 78.6115 7.82154C78.8215 7.76904 79.0577 7.7428 79.3202 7.7428C79.5827 7.7428 79.8451 7.76905 80.1076 7.79529C80.3963 7.82154 80.6588 7.87403 80.9212 7.92653L81.21 5.93177C81.0525 5.87928 80.8425 5.82679 80.58 5.80054C80.3438 5.77429 80.0551 5.74805 79.7664 5.74805Z" fill="white"/>
<path d="M88.2967 11.837V8.47746C88.2967 8.03127 88.2179 7.63757 88.0342 7.27012C87.8505 6.90266 87.6405 6.64019 87.3256 6.40397C87.0368 6.16775 86.6694 6.01027 86.2757 5.87904C85.8557 5.77405 85.4358 5.69531 84.9633 5.69531C84.4384 5.69531 83.966 5.77405 83.5723 5.90529C83.1786 6.03652 82.8111 6.22025 82.5487 6.45647C82.2599 6.69269 82.05 6.95516 81.8925 7.24387C81.735 7.53258 81.6825 7.84754 81.6825 8.18875H83.7035C83.7035 8.05752 83.7297 7.92628 83.756 7.79505C83.8085 7.69006 83.861 7.58508 83.9397 7.50634C84.0447 7.4276 84.1497 7.34886 84.3072 7.29636C84.4647 7.24387 84.6484 7.21762 84.8584 7.21762C85.0946 7.21762 85.3046 7.24387 85.4883 7.29636C85.672 7.34886 85.8295 7.45384 85.9345 7.55883C86.0395 7.66382 86.1445 7.79505 86.1969 7.92628C86.2494 8.08376 86.2757 8.24124 86.2757 8.42497V8.92366H85.1471C84.5696 8.92366 84.0447 8.97615 83.5985 9.08114C83.1523 9.18613 82.7849 9.34361 82.4699 9.52733C82.1287 9.73731 81.8925 10.026 81.7088 10.3672C81.5513 10.7084 81.4463 11.0759 81.4463 11.5221C81.4463 11.8633 81.525 12.1783 81.6563 12.467C81.7875 12.7557 81.9712 12.9919 82.2074 13.2019C82.4437 13.4118 82.7324 13.5693 83.0736 13.6743C83.4148 13.7793 83.7822 13.858 84.1759 13.858C84.4122 13.858 84.6484 13.8318 84.8584 13.7793C85.0683 13.7268 85.2783 13.6743 85.4358 13.5956C85.6195 13.5168 85.777 13.4381 85.9082 13.3331C86.0657 13.2281 86.1707 13.1231 86.3019 12.9919C86.3282 13.1231 86.3544 13.2544 86.3807 13.3856C86.4069 13.5168 86.4594 13.6218 86.5119 13.7268H88.5592V13.5956C88.4542 13.3856 88.3754 13.1494 88.3229 12.8869C88.3229 12.5982 88.2967 12.257 88.2967 11.837ZM86.3019 11.4696C86.2494 11.5746 86.1707 11.6796 86.0657 11.7583C85.9607 11.837 85.8557 11.942 85.6983 12.0208C85.567 12.0995 85.4095 12.152 85.2258 12.2045C85.0421 12.257 84.8584 12.2832 84.6746 12.2832C84.4909 12.2832 84.3334 12.257 84.1759 12.2045C84.0447 12.152 83.9135 12.0995 83.8085 12.0208C83.7035 11.942 83.651 11.837 83.5985 11.7321C83.546 11.6271 83.5198 11.4958 83.5198 11.3384C83.5198 11.1546 83.546 10.9971 83.6248 10.8397C83.7035 10.6822 83.8085 10.551 83.9397 10.446C84.071 10.341 84.2547 10.2622 84.4909 10.1835C84.7009 10.131 84.9896 10.1048 85.3046 10.1048H86.3282V11.4696H86.3019Z" fill="white"/>
<path d="M94.0184 6.58765C93.7822 6.32518 93.4934 6.11521 93.1785 5.95773C92.8635 5.80024 92.4961 5.74775 92.1024 5.74775C91.6037 5.74775 91.1837 5.85274 90.8163 6.03646C90.4488 6.22019 90.1076 6.50891 89.8451 6.85011C89.5827 7.19132 89.3727 7.61127 89.2415 8.10996C89.1102 8.60864 89.0315 9.13358 89.0315 9.73725V9.89473C89.0315 10.4722 89.1102 10.9971 89.2415 11.4695C89.3727 11.942 89.5827 12.3619 89.8451 12.7294C90.1076 13.0706 90.4226 13.3593 90.79 13.5693C91.1575 13.7792 91.6037 13.858 92.0761 13.858C92.5223 13.858 92.8898 13.7792 93.231 13.5955C93.5722 13.4118 93.8609 13.2018 94.0971 12.8869L94.2021 13.7005H96.0131V2.59814H93.9921V6.58765H94.0184ZM94.0184 11.3908C93.8871 11.6533 93.7034 11.8632 93.4672 11.9945C93.231 12.1257 92.9423 12.2307 92.6011 12.2307C92.3123 12.2307 92.0761 12.1782 91.8661 12.047C91.6562 11.9157 91.4987 11.7582 91.3937 11.5483C91.2625 11.3383 91.1837 11.1021 91.1312 10.8134C91.0787 10.5247 91.0525 10.2359 91.0525 9.89473V9.73725C91.0525 9.42229 91.0787 9.10733 91.1312 8.81862C91.1837 8.5299 91.2887 8.26744 91.3937 8.05746C91.5249 7.84749 91.6824 7.69001 91.8924 7.55877C92.1024 7.42754 92.3386 7.37505 92.6273 7.37505C92.9685 7.37505 93.2572 7.45379 93.4672 7.58502C93.7034 7.7425 93.8871 7.92623 94.0184 8.21494V11.3908Z" fill="white"/>
<path d="M99.4251 4.64562C99.5301 4.7506 99.635 4.82934 99.7925 4.88184C99.9238 4.93433 100.081 4.96058 100.265 4.96058C100.632 4.96058 100.895 4.85559 101.105 4.67186C101.315 4.48814 101.42 4.22567 101.42 3.91071C101.42 3.59575 101.315 3.33328 101.105 3.14955C100.895 2.93958 100.606 2.86084 100.265 2.86084C100.081 2.86084 99.9238 2.88709 99.7925 2.93958C99.6613 2.99207 99.5301 3.07081 99.4251 3.14955C99.3201 3.25454 99.2413 3.35953 99.1889 3.49076C99.1364 3.62199 99.1101 3.77948 99.1101 3.91071C99.1101 4.06819 99.1364 4.19942 99.1889 4.33066C99.2413 4.43564 99.3201 4.56688 99.4251 4.64562Z" fill="white"/>
<path d="M101.289 5.87891H97.0369V7.53245H99.2678V12.0731H97.0369V13.7004H103.415V12.0731H101.289V5.87891Z" fill="white"/>
<path d="M110.606 8.13638C110.449 7.66394 110.213 7.24399 109.898 6.87654C109.583 6.50908 109.189 6.24661 108.743 6.03664C108.297 5.82667 107.772 5.72168 107.168 5.72168C106.564 5.72168 106.066 5.82667 105.593 6.03664C105.147 6.24661 104.753 6.50908 104.438 6.87654C104.123 7.24399 103.887 7.66394 103.704 8.13638C103.546 8.60882 103.467 9.16 103.467 9.71118V9.86866C103.467 10.4461 103.546 10.971 103.704 11.4435C103.861 11.9159 104.097 12.3359 104.438 12.7033C104.753 13.0708 105.147 13.3332 105.593 13.5432C106.039 13.7532 106.564 13.8319 107.168 13.8319C107.746 13.8319 108.27 13.7269 108.717 13.5432C109.163 13.3332 109.557 13.0708 109.871 12.7033C110.186 12.3359 110.423 11.9159 110.58 11.4435C110.738 10.971 110.816 10.4198 110.816 9.86866V9.71118C110.843 9.16 110.764 8.63507 110.606 8.13638ZM108.848 9.86866C108.848 10.1836 108.822 10.4986 108.743 10.7873C108.69 11.076 108.585 11.3122 108.454 11.5222C108.323 11.7322 108.139 11.9159 107.929 12.0471C107.719 12.1784 107.457 12.2309 107.168 12.2309C106.853 12.2309 106.617 12.1784 106.381 12.0471C106.171 11.9159 105.987 11.7584 105.856 11.5222C105.725 11.3122 105.62 11.0498 105.567 10.7873C105.515 10.4986 105.462 10.1836 105.462 9.86866V9.71118C105.462 9.39622 105.488 9.08126 105.567 8.81879C105.62 8.53008 105.725 8.29386 105.856 8.05764C105.987 7.84766 106.171 7.66394 106.381 7.5327C106.591 7.40147 106.853 7.34898 107.142 7.34898C107.457 7.34898 107.693 7.40147 107.903 7.5327C108.113 7.66394 108.297 7.82142 108.428 8.05764C108.559 8.26761 108.664 8.53008 108.717 8.81879C108.769 9.10751 108.822 9.39622 108.822 9.71118V9.86866H108.848Z" fill="white"/>
<path d="M9.89762 17.874C9.58266 17.6115 10.2388 16.1154 10.58 15.328C11.2887 13.6745 12.0761 11.7847 11 10.3936C10.2388 9.42252 9.13647 9.37002 8.00786 9.60624C8.50655 8.47763 8.29657 7.24404 7.35169 6.27291C6.53804 5.43302 5.54067 5.09181 4.51705 5.35428C2.916 5.72173 1.60366 7.58525 1.15747 9.1863C0.842506 10.3674 0.973739 11.3385 1.55117 11.9422C1.55117 11.9422 1.57741 11.9422 1.57741 11.9684L1.60366 11.9947C3.04723 13.4645 5.17321 12.7034 6.87925 12.0997C7.6929 11.811 9.08398 11.3123 9.3202 11.6272C9.6614 12.0472 9.03148 13.517 8.63778 14.4619C7.92912 16.1417 7.03673 18.2152 8.55904 19.4488C9.00524 19.8162 9.47768 19.9737 10.0289 19.9737C12.3648 19.9737 15.3307 16.9553 16.3281 15.853L14.7795 14.4356C12.7323 16.7191 10.3438 18.2414 9.89762 17.874ZM4.67453 7.53275C5.12072 7.24404 5.46193 7.27029 5.85563 7.69023C6.27558 8.13643 6.32807 8.50388 5.96062 9.00257C5.25195 10.0262 3.62466 10.5774 3.09972 10.4724C3.02098 9.94745 3.62466 8.21517 4.67453 7.53275Z" fill="white"/>
<path d="M20.6326 8.0576C20.6064 8.03136 20.6064 8.03136 20.6326 8.0576C20.6064 8.03136 20.6064 8.03136 20.6064 8.03136C20.6064 8.03136 20.5801 8.03136 20.5801 8.00511C19.1366 6.50905 17.0106 7.2702 15.2783 7.87388C14.4646 8.16259 13.0736 8.66128 12.8373 8.34632C12.4961 7.92637 13.1261 6.45655 13.5198 5.51167C14.2284 3.83188 15.1208 1.75839 13.5985 0.524796C11.2363 -1.44371 7.06306 2.78201 5.85571 4.1206L7.40427 5.53792C9.45151 3.2807 11.84 1.75839 12.2862 2.12585C12.6011 2.38831 11.945 3.88437 11.6037 4.67178C10.8951 6.32532 10.1077 8.21508 11.1838 9.60616C11.7087 10.2886 12.3911 10.4985 13.1261 10.4985C13.4673 10.4985 13.8085 10.4461 14.1759 10.3673C13.6772 11.4959 13.8872 12.7295 14.8321 13.7006C15.462 14.3568 16.2232 14.698 16.9843 14.698C17.2205 14.698 17.4305 14.6718 17.6667 14.6193C19.2678 14.1993 20.5801 12.3621 21.0263 10.761C21.3413 9.63241 21.21 8.66128 20.6326 8.0576ZM17.5093 12.4671C17.0631 12.7558 16.7219 12.7295 16.3282 12.3096C15.9082 11.8634 15.8557 11.4959 16.2232 10.9972C16.8793 10.0524 18.3229 9.50117 18.9528 9.50117C19.0053 9.50117 19.0316 9.50117 19.0841 9.50117C19.1628 10.0524 18.5591 11.7846 17.5093 12.4671Z" fill="white"/>
</g>
<defs>
<filter id="filter0_d" x="0" y="0" width="112" height="21" filterUnits="userSpaceOnUse" color-interpolation-filters="sRGB">
<feFlood flood-opacity="0" result="BackgroundImageFix"/>
<feColorMatrix in="SourceAlpha" type="matrix" values="0 0 0 0 0 0 0 0 0 0 0 0 0 0 0 0 0 0 127 0"/>
<feOffset dx="1" dy="1"/>
<feColorMatrix type="matrix" values="0 0 0 0 0 0 0 0 0 0 0 0 0 0 0 0 0 0 0.5 0"/>
<feBlend mode="normal" in2="BackgroundImageFix" result="effect1_dropShadow"/>
<feBlend mode="normal" in="SourceGraphic" in2="effect1_dropShadow" result="shape"/>
</filter>
</defs>
</svg>
